<ttFont>
          <CharString index="0">
            -97 callgsubr
            -99 callgsubr
          </CharString>
          <CharString index="1">
            vstem
            -32 callgsubr
            -71 callsubr
            -61 callgsubr
            -71 callgsubr
            -91 callgsubr
            return
          </CharString>
          <CharString index="2">
            -12 callsubr
            -107 callsubr
          </CharString>
          <CharString index="3">
            294 -13 callsubr
            -78 -166 -25 -221 hvcurveto
            -65 callgsubr
            -94 callsubr
            return
          </CharString>
          <CharString index="4">
            -5 callgsubr
            97 71 56 106 2 vhcurveto
            -58 callgsubr
            -77 -58 -37 -65 -67 callgsubr
            -80 vhcurveto
            -54 -210 vlineto
            -69 callsubr
            -8 -78 callgsubr
            216 hlineto
            33 8 24 19 hvcurveto
            60 vlineto
            107 -71 58 -99 return
          </CharString>
          <CharString index="5">
            rmoveto
            -24 -2 -4 -19 12 -15 107 -133 rcurveline
            -10 8 7 -7 15 hhcurveto
            10 8 5 6 4 hvcurveto
            4 6 0 7 -6 8 -107 136 rcurveline
            -8 10 -5 10 -21 -2 rrcurveto
            endchar
          </CharString>
          <CharString index="6">
            -51 callgsubr
            -166 hmoveto
            -43 -7 -6 -39 6 callsubr
            -41 7 -6 43 -46 callgsubr
            -32 vmoveto
            return
          </CharString>
          <CharString index="7">
            -74 callsubr
            -317 vlineto
            -106 64 -59 90 55 51 27 36 26 vhcurveto
            2 3 3 7 6 vvcurveto
            17 -11 5 -8 -7 -7 -5 -6 -5 vhcurveto
            -29 -26 -24 -14 -44 hhcurveto
            -69 -43 39 80 hvcurveto
            316 vlineto
            12 -8 8 -12 vhcurveto
            return
          </CharString>
          <CharString index="8">
            -100 -74 -56 -109 -35 callgsubr
            -5 callgsubr
            99 71 59 106 vhcurveto
            174 -58 callsubr
            -47 vmoveto
            35 callsubr
            -35 callgsubr
            -80 -56 -38 -67 -69 -58 38 80 vhcurveto
            174 18 callgsubr
            vhcurveto
            return
          </CharString>
          <CharString index="9">
            -22 callgsubr
            hstem
            16 539 -106 callsubr
            return
          </CharString>
          <CharString index="10">
            -3 0 47 408 47 hstem
            73 25 callgsubr
            -106 callgsubr
            return
          </CharString>
          <CharString index="11">
            -103 callgsubr
            endchar
          </CharString>
          <CharString index="12">
            -88 callgsubr
            -84 callgsubr
            return
          </CharString>
          <CharString index="13">
            203 vlineto
            215 -164 31 -79 vhcurveto
            -49 vmoveto
            60 134 -21 -180 hvcurveto
            -196 vlineto
            -180 -131 -26 -63 -62 -133 -49 callgsubr
            21 64 vhcurveto
            return
          </CharString>
          <CharString index="14">
            -101 callsubr
            -51 callsubr
            return
          </CharString>
          <CharString index="15">
            3 callgsubr
            hstem
            62 50 vstem
            102 -95 callsubr
            return
          </CharString>
          <CharString index="16">
            -10 vlineto
            -13 -3 -2 -18 -15 -3 2 13 7 callgsubr
            return
          </CharString>
          <CharString index="17">
            -47 -65 callsubr
            47 -80 callgsubr
            return
          </CharString>
          <CharString index="18">
            -45 70 15 5 7 10 vhcurveto
            11 vlineto
            10 -5 1 -10 50 callgsubr
            3 rlineto
            -24 7 -8 12 54 vvcurveto
            return
          </CharString>
          <CharString index="19">
            -51 callsubr
            -91 callsubr
            return
          </CharString>
          <CharString index="20">
            rmoveto
            -15 1 0 -101 -112 hvcurveto
            -2 -2 -2 2 rlineto
            101 -112 1 0 -15 hhcurveto
            -21 -6 -21 -11 11 hvcurveto
            107 -105 rlineto
            -7 8 9 -12 19 hhcurveto
            2 hlineto
            19 9 12 7 8 hvcurveto
            107 105 rlineto
            11 11 -6 21 -21 hhcurveto
            endchar
          </CharString>
          <CharString index="21">
            244 -82 callsubr
            -174 vlineto
            -5 callgsubr
            return
          </CharString>
          <CharString index="22">
            rmoveto
            -21 -6 -7 -25 hvcurveto
            -93 vlineto
            -20 8 -9 21 vhcurveto
            33 hlineto
            -57 -130 -4 -8 2 -5 8 -1 rlinecurve
            26 hlineto
            8 1 6 8 3 hvcurveto
            100 229 rlineto
            5 13 2 8 6 vvcurveto
            7 -2 4 -2 4 vhcurveto
            3 -2 -6 10 -15 hhcurveto
            -62 -116 rmoveto
            -14 hlineto
            -12 -1 0 7 hvcurveto
            53 vlineto
            14 -1 2 10 vhcurveto
            52 hlineto
            6 2 -2 -3 -2 -1 -3 -1 -3 hvcurveto
            -30 -69 rlineto
            4 -1 -3 2 -6 hhcurveto
            return
          </CharString>
          <CharString index="23">
            391 5 callgsubr
            -295 -170 292 rlineto
            4 -3 -10 5 -4 hhcurveto
            -12 hlineto
            -17 -7 -16 -14 7 hvcurveto
            182 -309 3 -5 3 -4 3 -3 rlinecurve
            -4 vlineto
            -325 vlineto
            -29 callsubr
            325 vlineto
            3 vlineto
            4 4 3 5 4 6 169 308 rcurveline
            43 callgsubr
            return
          </CharString>
          <CharString index="24">
            rmoveto
            -11 -7 -2 -10 -12 hvcurveto
            -109 -90 -5 -4 -2 -7 4 -5 rlinecurve
            7 -9 3 -4 8 -1 5 4 rlinecurve
            105 83 rlineto
            -387 vlineto
            -8 2 -5 10 vhcurveto
            17 hlineto
            8 4 5 9 hvcurveto
            394 vlineto
            17 -5 19 -22 1 vhcurveto
            return
          </CharString>
          <CharString index="25">
            502 -73 callsubr
            return
          </CharString>
          <CharString index="26">
            -83 callgsubr
            18 3 -4 -11 hvcurveto
            -10 vlineto
            -13 -3 -2 -18 -15 -3 2 13 vhcurveto
            10 vlineto
            return
          </CharString>
          <CharString index="27">
            -14 -10 -11 -12 -6 3 -9 9 -7 hvcurveto
            224 -168 -224 -168 rlineto
            -9 -6 -4 -9 -7 vvcurveto
            -4 1 -3 1 -3 vhcurveto
            -9 4 -18 callgsubr
            5 4 1 3 4 hvcurveto
            230 173 rlineto
            13 10 7 11 16 vvcurveto
            16 -8 10 -13 10 vhcurveto
            -229 174 rlineto
            2 -4 -4 1 -4 hhcurveto
            return
          </CharString>
          <CharString index="28">
            27 callgsubr
            hstemhm
            68 47 -38 47 240 47 hintmask 11110100
            -4 callsubr
            vhcurveto
            hintmask 11101100
            -66 74 callgsubr
            hvcurveto
            -39 callsubr
            hintmask 11110100
            -305 2 -100 callsubr
            return
          </CharString>
          <CharString index="29">
            232 -104 callgsubr
          </CharString>
          <CharString index="30">
            -307 -8 callsubr
            74 49 vstem
            94 -31 callgsubr
            -660 -22 callsubr
            11 9 20 callsubr
            -9 9 -11 vhcurveto
            return
          </CharString>
          <CharString index="31">
            rmoveto
            -42 -8 -6 -39 6 callsubr
            -41 8 -6 42 return
          </CharString>
          <CharString index="32">
            160 47 callgsubr
            -2 76 hlineto
            73 40 36 61 vhcurveto
            25 hlineto
            12 7 11 8 77 callgsubr
            20 -29 0 -16 -90 -58 -54 -101 1 vhcurveto
            -1 -558 rlineto
            32 callsubr
            8 -19 callgsubr
            1 437 rlineto
            2 hlineto
            104 -7 callsubr
            return
          </CharString>
          <CharString index="33">
            -52 callgsubr
            -12 hvcurveto
            return
          </CharString>
          <CharString index="34">
            rmoveto
            -100 -74 -56 -109 hvcurveto
            return
          </CharString>
          <CharString index="35">
            -66 callsubr
            hintmask 11101000
            -59 callsubr
            hintmask 11110000
            14 callsubr
            endchar
          </CharString>
          <CharString index="36">
            -229 -647 rlineto
            -1 -3 0 -2 -2 vvcurveto
            -12 7 -8 13 37 callsubr
            return
          </CharString>
          <CharString index="37">
            -43 callgsubr
            12 hvcurveto
            return
          </CharString>
          <CharString index="38">
            -12 -55 callgsubr
            return
          </CharString>
          <CharString index="39">
            rmoveto
            -9 -6 -5 -8 -6 hvcurveto
            -568 -699 rlineto
            -10 -8 4 -16 15 hhcurveto
            11 hlineto
            9 6 8 5 3 hvcurveto
            567 699 rlineto
            11 9 -9 15 -15 hhcurveto
            return
          </CharString>
          <CharString index="40">
            -8 -60 callsubr
            return
          </CharString>
          <CharString index="41">
            rmoveto
            -55 -45 -42 -43 -7 hvcurveto
            -8 -2 1 -3 4 hhcurveto
            31 hlineto
            3 1 0 4 1 hvcurveto
            40 7 29 17 32 hhcurveto
            61 21 -38 -39 hvcurveto
            -51 1 -31 -36 -66 hhcurveto
            -34 hlineto
            -10 1 -2 -15 -17 -2 -1 10 hvcurveto
            37 hlineto
            return
          </CharString>
          <CharString index="42">
            -9 -6 -43 hvcurveto
            -13 vlineto
            -46 9 -6 return
          </CharString>
          <CharString index="43">
            45 0 49 602 49 hstem
            31 483 vstem
            51 69 callgsubr
            -9 28 callsubr
            372 hlineto
            -364 -576 rlineto
            -1 vlineto
            -2 -4 rlineto
            1 vlineto
            -7 -9 -7 -13 -12 vvcurveto
            -21 10 -16 30 vhcurveto
            411 -55 callsubr
            -393 hlineto
            366 576 rlineto
            0 0 1 -1 1 vhcurveto
            3 3 rlineto
            -1 vlineto
            7 9 7 16 11 vvcurveto
            22 -10 13 -32 vhcurveto
            return
          </CharString>
          <CharString index="44">
            -71 -8 callsubr
            189 50 vstem
            -84 callsubr
            return
          </CharString>
          <CharString index="45">
            248 61 callsubr
            -56 -49 -42 callsubr
            28 15 42 hhcurveto
            70 39 -38 -81 -23 callsubr
            327 vlineto
            101 -55 54 -100 vhcurveto
            -169 -3 rmoveto
            -1 callsubr
            -459 -54 callgsubr
            459 -73 callgsubr
            return
          </CharString>
          <CharString index="46">
            rmoveto
            -19 -12 -10 -20 -9 hvcurveto
            -182 -453 -192 453 rlineto
            18 -8 -14 12 -18 hhcurveto
            -20 -19 -11 -32 hvcurveto
            -640 vlineto
            -11 8 -36 callgsubr
            599 vlineto
            184 -435 rlineto
            -14 6 14 -14 21 hhcurveto
            18 2 12 13 6 14 174 430 rcurveline
            -595 -22 callsubr
            12 8 9 11 hvcurveto
            640 vlineto
            32 -21 11 -19 vhcurveto
            endchar
          </CharString>
          <CharString index="47">
            8 -11 vhcurveto
            return
          </CharString>
          <CharString index="48">
            77 27 -41 -48 -55 -40 -29 -51 -40 -38 19 47 -12 hvcurveto
            8 -2 -1 -1 -3 hhcurveto
            -24 -1 rlineto
            -6 -1 -1 -11 3 hvcurveto
            -57 12 39 -39 73 hhcurveto
            55 72 32 88 44 -19 46 -57 17 hvcurveto
            return
          </CharString>
          <CharString index="49">
            vlineto
            107 -71 58 -99 vhcurveto
            return
          </CharString>
          <CharString index="50">
            4 callgsubr
            -11 vlineto
            -12 9 -6 11 vhcurveto
            444 1 callgsubr
            6 12 hvcurveto
            11 -70 callgsubr
            return
          </CharString>
          <CharString index="51">
            hvcurveto
            9 -23 callgsubr
            return
          </CharString>
          <CharString index="52">
            -63 callgsubr
            9 -73 callgsubr
            return
          </CharString>
          <CharString index="53">
            -70 callgsubr
            -10 hlineto
            -69 callsubr
            return
          </CharString>
          <CharString index="54">
            -9 -60 callsubr
            return
          </CharString>
          <CharString index="55">
            13 3 8 callgsubr
            return
          </CharString>
          <CharString index="56">
            18 3 -4 -11 hvcurveto
            return
          </CharString>
          <CharString index="57">
            rmoveto
            -7 31 callsubr
            -260 -660 rlineto
            -13 -5 9 -13 10 callgsubr
            261 660 rlineto
            13 5 -5 13 67 callgsubr
          </CharString>
          <CharString index="58">
            -24 callgsubr
            8 -70 callsubr
            return
          </CharString>
          <CharString index="59">
            366 rmoveto
            -12 -8 -8 -11 hvcurveto
            -9 -78 callgsubr
            171 -171 hlineto
            -11 8 -8 10 -1 vhcurveto
            10 -20 callgsubr
            12 1 hvcurveto
            171 171 vlineto
            -45 callgsubr
            -171 172 hlineto
            -1 10 -8 8 -12 1 rrcurveto
            -8 -19 callsubr
            -172 vlineto
            return
          </CharString>
          <CharString index="60">
            -28 callsubr
            9 -12 vhcurveto
            return
          </CharString>
          <CharString index="61">
            -21 callgsubr
            12 -7 callsubr
            return
          </CharString>
          <CharString index="62">
            8 -8 12 vhcurveto
            return
          </CharString>
          <CharString index="63">
            -48 vmoveto
            38 16 -18 -31 hvcurveto
            -117 vlineto
            -30 -18 -19 -36 -35 -18 19 30 vhcurveto
            return
          </CharString>
          <CharString index="64">
            -75 callsubr
            32 callgsubr
            -11 vhcurveto
            return
          </CharString>
          <CharString index="65">
            -27 -38 -27 hvcurveto
            -2 -4 -2 -9 -3 vvcurveto
            -15 1 -18 callgsubr
            6 8 5 4 5 hvcurveto
            30 27 return
          </CharString>
          <CharString index="66">
            rmoveto
            -12 -36 callsubr
            -558 vlineto
            -101 -1 48 -52 90 hhcurveto
            16 20 9 callsubr
            -16 hlineto
            -61 -30 34 73 hvcurveto
            return
          </CharString>
          <CharString index="67">
            57 callgsubr
            hstem
            66 43 335 46 vstem
            453 508 -62 callgsubr
            return
          </CharString>
          <CharString index="68">
            11 -67 callsubr
            -9 -19 callsubr
            -102 3 58 -58 104 hhcurveto
            101 68 58 118 hvcurveto
            534 -15 callsubr
            return
          </CharString>
          <CharString index="69">
            vlineto
            -37 callsubr
            return
          </CharString>
          <CharString index="70">
            -11 -21 callsubr
            return
          </CharString>
          <CharString index="71">
            -8 -16 callsubr
            return
          </CharString>
          <CharString index="72">
            -9 -11 hvcurveto
            return
          </CharString>
          <CharString index="73">
            rmoveto
            -12 -36 callsubr
            -10 21 callgsubr
            249 hlineto
            -2 callgsubr
            endchar
          </CharString>
          <CharString index="74">
            -218 hmoveto
            -69 callsubr
            -4 -78 callgsubr
            24 3 callsubr
            4 -70 callgsubr
            return
          </CharString>
          <CharString index="75">
            -13 callsubr
            -30 -10 -13 -26 hvcurveto
            -621 vlineto
            return
          </CharString>
          <CharString index="76">
            16 callgsubr
            -9 return
          </CharString>
          <CharString index="77">
            -10 callgsubr
            -783 vlineto
            -46 callsubr
            783 vlineto
            11 -67 callsubr
            return
          </CharString>
          <CharString index="78">
            -11 9 -36 callgsubr
            return
          </CharString>
          <CharString index="79">
            12 -56 callgsubr
            return
          </CharString>
          <CharString index="80">
            38 69 13 callsubr
            return
          </CharString>
          <CharString index="81">
            37 76 14 -7 3 -6 hvcurveto
            return
          </CharString>
          <CharString index="82">
            10 vlineto
            15 4 2 return
          </CharString>
          <CharString index="83">
            -67 callsubr
            endchar
          </CharString>
          <CharString index="84">
            1 callsubr
            8 -20 callgsubr
            12 hvcurveto
            return
          </CharString>
          <CharString index="85">
            -78 callgsubr
            9 hlineto
            return
          </CharString>
          <CharString index="86">
            8 -24 callgsubr
            return
          </CharString>
          <CharString index="87">
            -156 298 48 hstem
            31 289 vstem
            51 346 -34 callsubr
          </CharString>
          <CharString index="88">
            hlineto
            -10 callgsubr
            return
          </CharString>
          <CharString index="89">
            -11 -8 -8 return
          </CharString>
          <CharString index="90">
            65 callgsubr
            56 120 -21 -147 16 vhcurveto
            -10 1 8 77 callsubr
            9 hlineto
            13 7 10 12 hvcurveto
            44 callgsubr
            endchar
          </CharString>
          <CharString index="91">
            -8 -11 hvcurveto
            return
          </CharString>
          <CharString index="92">
            vlineto
            -10 callsubr
            return
          </CharString>
          <CharString index="93">
            124 116 -70 -146 hvcurveto
            -228 vlineto
            -146 -116 -70 -124 -122 -122 70 146 vhcurveto
            228 vlineto
            146 122 70 122 vhcurveto
            return
          </CharString>
          <CharString index="94">
            700 rmoveto
            return
          </CharString>
          <CharString index="95">
            -76 callsubr
            -75 callgsubr
            return
          </CharString>
          <CharString index="96">
            -11 -9 -35 callsubr
            return
          </CharString>
          <CharString index="97">
            12 -67 callsubr
            return
          </CharString>
          <CharString index="98">
            -203 vlineto
            -215 return
          </CharString>
          <CharString index="99">
            0 callgsubr
            hstem
            return
          </CharString>
          <CharString index="100">
            hlineto
            -14 callgsubr
            return
          </CharString>
          <CharString index="101">
            8 23 callgsubr
            return
          </CharString>
          <CharString index="102">
            -77 -1 -56 -37 -66 hhcurveto
            -67 callgsubr
            -79 24 callsubr
            return
          </CharString>
          <CharString index="103">
            383 500 -74 callsubr
            -535 vlineto
            -89 -41 -39 -78 return
          </CharString>
          <CharString index="104">
            2 callgsubr
            -9 12 vhcurveto
            return
          </CharString>
          <CharString index="105">
            -11 -55 callgsubr
            -9 vlineto
            return
          </CharString>
          <CharString index="106">
            29 callsubr
            -12 hvcurveto
            return
          </CharString>
          <CharString index="107">
            9 -11 vhcurveto
            return
          </CharString>
          <CharString index="108">
            hvcurveto
            -316 vlineto
            -12 -45 callsubr
            return
          </CharString>
          <CharString index="109">
            8 8 11 hvcurveto
            10 -23 callgsubr
            8 return
          </CharString>
          <CharString index="110">
            1 callgsubr
            6 callgsubr
            return
          </CharString>
          <CharString index="111">
            11 8 9 11 return
          </CharString>
          <CharString index="112">
            -11 -9 20 callgsubr
            9 23 callgsubr
            9 hlineto
            12 8 20 callsubr
            -8 9 -12 vhcurveto
            return
          </CharString>
          <CharString index="113">
            hvcurveto
            -12 vlineto
            return
          </CharString>
          <CharString index="114">
            89 702 rmoveto
            -21 -16 -11 -30 hvcurveto
            -641 12 callsubr
            11 -63 callgsubr
            609 vlineto
            return
          </CharString>
          <CharString index="115">
            32 39 32 return
          </CharString>
          <CharString index="116">
            0 20 77 callgsubr
            8 -7 11 -12 vhcurveto
            return
          </CharString>
          <CharString index="117">
            -69 callsubr
            -429 vlineto
            return
          </CharString>
          <CharString index="118">
            vlineto
            11 -53 callsubr
            return
          </CharString>
          <CharString index="119">
            vlineto
            -21 callgsubr
            return
          </CharString>
          <CharString index="120">
            67 56 -38 return
          </CharString>
          <CharString index="121">
            47 19 20 44 -1 41 rrcurveto
            56 -1 -34 56 -83 hhcurveto
            return
          </CharString>
          <CharString index="122">
            -38 callsubr
            9 -19 callgsubr
            return
          </CharString>
          <CharString index="123">
            -12 8 -8 return
          </CharString>
          <CharString index="124">
            13 37 callsubr
            6 return
          </CharString>
          <CharString index="125">
            7 5 8 9 hvcurveto
            7 vlineto
            6 -5 8 -7 vhcurveto
            return
          </CharString>
          <CharString index="126" raw="1">
            971ef81a d71d0b  
          </CharString>
          <CharString index="127">
            6 callgsubr
            660 vlineto
            11 return
          </CharString>
          <CharString index="128">
            -3 -2 47 410 47 return
          </CharString>
          <CharString index="129">
            -8 hlineto
            -11 -8 return
          </CharString>
          <CharString index="130">
            35 44 35 return
          </CharString>
          <CharString index="131">
            -37 callsubr
            8 56 callgsubr
            return
          </CharString>
          <CharString index="132">
            -80 hlineto
            -3 callsubr
            89 hlineto
            128 65 return
          </CharString>
          <CharString index="133">
            -111 198 -127 217 -117 194 rrcurveto
            13 -8 -12 11 -22 hhcurveto
            return
          </CharString>
          <CharString index="134">
            -229 -21 248 55 callsubr
            return
          </CharString>
          <CharString index="135">
            vlineto
            31 callgsubr
            return
          </CharString>
          <CharString index="136">
            -11 -9 -8 return
          </CharString>
          <CharString index="137">
            rcurveline
            11 3 5 10 -3 11 -1 2 rcurveline
            -4 12 -10 5 -12 -3 rrcurveto
            return
          </CharString>
          <CharString index="138">
            -8 -5 -8 -4 hvcurveto
            return
          </CharString>
          <CharString index="139">
            -11 -45 callsubr
            return
          </CharString>
          <CharString index="140">
            8 callsubr
            hintmask 1111101010000000
            hintmask 1111110110000000
            return
          </CharString>
          <CharString index="141">
            -225 168 225 168 rlineto
            return
          </CharString>
          <CharString index="142">
            13 callsubr
            -80 return
          </CharString>
          <CharString index="143">
            -11 37 callgsubr
            return
          </CharString>
          <CharString index="144">
            vhcurveto
            12 hlineto
            return
          </CharString>
          <CharString index="145" raw="1">
            1580820b   
          </CharString>
          <CharString index="146">
            rmoveto
            -11 -10 -8 -10 1 hvcurveto
            -13 vlineto
            -11 -1 10 77 callsubr
            return
          </CharString>
          <CharString index="147">
            hlineto
            7 5 return
          </CharString>
          <CharString index="148">
            -19 callgsubr
            140 vlineto
            11 -67 callsubr
            return
          </CharString>
          <CharString index="149">
            49 callsubr
            -9 callsubr
            return
          </CharString>
          <CharString index="150">
            36 173 35 164 35 hstemhm
            return
          </CharString>
          <CharString index="151">
            21 -21 455 47 return
          </CharString>
          <CharString index="152">
            461 vlineto
            12 return
          </CharString>
          <CharString index="153">
            hhcurveto
            12 hlineto
            return
          </CharString>
          <CharString index="154">
            56 callgsubr
            hvcurveto
            9 -70 callgsubr
            return
          </CharString>
          <CharString index="155">
            rmoveto
            -11 -8 -8 -11 hvcurveto
            -9 12 callsubr
            return
          </CharString>
          <CharString index="156">
            -221 hvcurveto
            return
          </CharString>
          <CharString index="157">
            68 57 -37 -81 hvcurveto
            -171 vlineto
            -80 -57 -39 -68 return
          </CharString>
          <CharString index="158">
            -10 3 -10 2 -3 rcurveline
            2 -11 11 -4 10 2 return
          </CharString>
          <CharString index="159" raw="1">
            ba1d800b   
          </CharString>
          <CharString index="160">
            48 249 return
          </CharString>
          <CharString index="161">
            -8 -12 hvcurveto
            -461 28 callsubr
            return
          </CharString>
          <CharString index="162">
            60 callsubr
            hstem
            return
          </CharString>
          <CharString index="163">
            732 rmoveto
            return
          </CharString>
          <CharString index="164">
            0 48 215 48 78 48 215 48 return
          </CharString>
          <CharString index="165">
            8 12 hvcurveto
            317 vlineto
            return
          </CharString>
          <CharString index="166" raw="1">
            f8410796 0b  
          </CharString>
          <CharString index="167">
            48 408 48 return
          </CharString>
          <CharString index="168">
            502 rmoveto
            return
          </CharString>
          <CharString index="169">
            546 186 hstem
            98 169 vstem
            return
          </CharString>
          <CharString index="170">
            73 callsubr
            -8 -9 -10 -1 hvcurveto
            return
          </CharString>
          <CharString index="171">
            -10 callsubr
            -8 hlineto
            -12 -8 return
          </CharString>
          <CharString index="172">
            19 -21 23 -21 700 -20 22 -20 return
          </CharString>
          <CharString index="173">
            -8 9 -11 return
          </CharString>
          <CharString index="174">
            50 48 107 48 102 48 107 48 return
          </CharString>
          <CharString index="175">
            578 38 76 40 hstem
            45 40 return
          </CharString>
          <CharString index="176">
            6 7 3 hvcurveto
            78 206 rlineto
            return
          </CharString>
          <CharString index="177">
            -15 callsubr
            endchar
          </CharString>
          <CharString index="178">
            21 -21 651 49 return
          </CharString>
          <CharString index="179">
            rlineto
            -4 -4 -2 -5 return
          </CharString>
          <CharString index="180">
            730 rmoveto
            -11 return
          </CharString>
          <CharString index="181">
            106 427 hstem
            return
          </CharString>
          <CharString index="182">
            23 callsubr
            hstem
            return
          </CharString>
          <CharString index="183">
            vhcurveto
            -9 hlineto
            return
          </CharString>
          <CharString index="184">
            -8 11 hhcurveto
            return
          </CharString>
        <CharString name=".notdef">
          -207 endchar
        </CharString>
        <CharString name=".null">
          -507 endchar
        </CharString>
        <CharString name="A">
          -98 callsubr
          endchar
        </CharString>
        <CharString name="AE">
          581 0 49 210 49 31 35 callgsubr
          hstem
          500 50 vstem
          540 -95 callsubr
          -538 313 rmoveto
          -23 -12 -12 -15 -5 hvcurveto
          -71 callsubr
          -61 callgsubr
          -71 callgsubr
          -91 callgsubr
          endchar
        </CharString>
        <CharString name="Aacute">
          -98 callsubr
          -24 624 -104 callgsubr
        </CharString>
        <CharString name="Acircumflex">
          -98 callsubr
          -86 644 -107 callgsubr
        </CharString>
        <CharString name="Adieresis">
          -22 callgsubr
          82 46 callgsubr
          hstem
          152 -25 callgsubr
          -106 callsubr
          -4 559 -105 callsubr
        </CharString>
        <CharString name="Agrave">
          -98 callsubr
          -128 624 -102 callsubr
        </CharString>
        <CharString name="Aring">
          -22 callgsubr
          20 43 146 43 hstemhm
          188 42 108 42 hintmask 11101110
          -32 callgsubr
          hintmask 11011110
          -71 callsubr
          hintmask 11101110
          -61 callgsubr
          hintmask 11011110
          -71 callgsubr
          hintmask 11101110
          -91 callgsubr
          -86 625 -64 callgsubr
        </CharString>
        <CharString name="Atilde">
          -22 callgsubr
          77 57 callgsubr
          hstem
          112 73 callgsubr
          -106 callsubr
          49 580 -101 callgsubr
        </CharString>
        <CharString name="B">
          1 0 49 289 47 265 50 hstemhm
          51 50 303 50 -21 50 hintmask 11110100
          94 -13 callsubr
          -34 -9 -9 -35 hvcurveto
          -610 vlineto
          -36 10 -10 35 vhcurveto
          145 hlineto
          89 41 14 18 32 hvcurveto
          53 32 27 63 69 vvcurveto
          58 -30 85 -107 24 vhcurveto
          hintmask 11111000
          82 29 24 72 2 53 rrcurveto
          57 -23 60 -54 33 vhcurveto
          18 -30 -59 15 -86 hhcurveto
          -1 -50 rmoveto
          180 23 -70 -62 -53 -30 -80 -124 hvcurveto
          -63 hlineto
          -18 -22 0 -24 -24 19 1 15 hvcurveto
          67 hlineto
          hintmask 11110100
          124 61 -73 -73 -70 -32 -73 -144 hvcurveto
          -156 601 hlineto
          endchar
        </CharString>
        <CharString name="C">
          57 -1 49 608 50 hstem
          40 49 389 48 vstem
          -15 callgsubr
          -148 -103 -31 -81 -61 -144 26 180 hvcurveto
          -17 callsubr
        </CharString>
        <CharString name="CR">
          -207 endchar
        </CharString>
        <CharString name="Ccedilla">
          57 -269 43 126 43 56 11 -11 49 608 50 hstemhm
          40 49 235 42 112 48 hintmask 11101111
          -15 callgsubr
          hvcurveto
          hintmask 11011111
          -148 -103 -31 -81 -61 -144 -49 callgsubr
          26 64 56 120 -21 -147 16 vhcurveto
          -10 1 8 77 callsubr
          9 hlineto
          13 7 10 12 hvcurveto
          hintmask 11101111
          44 callgsubr
          -19 -695 -69 callgsubr
        </CharString>
        <CharString name="D">
          69 0 49 602 49 hstem
          42 50 342 49 vstem
          -37 callgsubr
          endchar
        </CharString>
        <CharString name="E">
          -92 callsubr
          endchar
        </CharString>
        <CharString name="Eacute">
          -92 callsubr
          -74 544 -104 callgsubr
        </CharString>
        <CharString name="Ecircumflex">
          -92 callsubr
          -136 564 -107 callgsubr
        </CharString>
        <CharString name="Edieresis">
          3 callgsubr
          63 46 callgsubr
          hstemhm
          62 50 4 -25 callgsubr
          hintmask 1111110111000000
          102 -88 callgsubr
          hintmask 0001101100000000
          -84 callgsubr
          -54 479 -12 callsubr
          hintmask 1110010000000000
          -107 callsubr
        </CharString>
        <CharString name="Egrave">
          -92 callsubr
          -178 544 -102 callsubr
        </CharString>
        <CharString name="Eth">
          69 0 49 277 48 277 49 hstem
          42 50 342 49 cntrmask 11100000
          -37 callgsubr
          -133 -277 -34 callsubr
        </CharString>
        <CharString name="Euro">
          149 -1 48 228 48 48 48 232 49 hstem
          79 49 380 46 vstem
          37 419 rmoveto
          -2 callsubr
          -11 8 -8 11 vhcurveto
          42 -48 -42 -19 callsubr
          -10 -38 callsubr
          42 -30 hlineto
          -210 161 -36 77 75 162 39 201 11 -67 callsubr
          -8 hlineto
          -10 -9 -9 -10 -167 -130 -25 -61 -59 -130 25 177 hvcurveto
          26 277 vlineto
          -2 callgsubr
          -277 48 277 47 callsubr
          -277 31 hlineto
          177 127 24 62 56 133 -31 -133 -10 11 -8 9 vhcurveto
          9 hlineto
          12 7 9 12 167 -163 43 -74 -74 -164 -30 -217 hvcurveto
          -34 vlineto
          endchar
        </CharString>
        <CharString name="F">
          -23 21 -21 339 35 callgsubr
          hstem
          61 50 vstem
          99 -13 callsubr
          -35 -3 -19 -21 hvcurveto
          -640 -11 callgsubr
          631 321 vlineto
          -47 callsubr
          -281 -312 rmoveto
          -2 callsubr
          -12 -21 callsubr
          225 -53 callgsubr
          endchar
        </CharString>
        <CharString name="G">
          74 -1 49 254 49 305 50 hstem
          40 49 388 49 vstem
          -3 callgsubr
          164 -37 80 76 166 29 215 vhcurveto
          65 vlineto
          19 -7 24 -33 vhcurveto
          -174 hlineto
          -69 callsubr
          -9 callgsubr
          12 vhcurveto
          165 -58 hlineto
          -172 -131 -24 -62 -61 -134 26 180 vhcurveto
          -17 callsubr
        </CharString>
        <CharString name="H">
          40 21 -21 343 50 307 -20 hstem
          46 49 336 49 vstem
          451 700 rmoveto
          5 callsubr
          -394 hmoveto
          5 callsubr
          60 -307 4 callgsubr
          -10 vlineto
          -11 9 23 callgsubr
          258 -63 callgsubr
          10 70 callgsubr
        </CharString>
        <CharString name="I">
          -77 callsubr
          endchar
        </CharString>
        <CharString name="Iacute">
          -77 callsubr
          59 -78 callsubr
        </CharString>
        <CharString name="Icircumflex">
          -77 callsubr
          -3 252 -107 callgsubr
        </CharString>
        <CharString name="Idieresis">
          -307 0 callgsubr
          83 46 callgsubr
          hstemhm
          -34 8 callsubr
          5 49 9 33 callsubr
          94 -31 callgsubr
          -660 -22 callsubr
          11 9 20 callsubr
          -9 9 -11 vhcurveto
          79 -81 callsubr
          hintmask 1111101010000000
          -99 callgsubr
        </CharString>
        <CharString name="Igrave">
          -77 callsubr
          -45 232 -102 callsubr
        </CharString>
        <CharString name="J">
          -20 0 49 601 50 hstem
          377 50 vstem
          74 -13 callsubr
          -11 -55 callgsubr
          -10 vlineto
          -12 -21 callsubr
          303 -433 hlineto
          -126 -63 -42 -81 -21 -98 2 90 -35 vhcurveto
          8 -3 -6 4 -8 hhcurveto
          -2 -2 0 -1 -2 hvcurveto
          -9 -3 rlineto
          -9 -3 -5 -8 -9 vvcurveto
          -2 1 -3 1 -2 vhcurveto
          -89 36 82 -33 80 hhcurveto
          123 71 86 132 hvcurveto
          445 vlineto
          23 -9 14 -31 vhcurveto
          endchar
        </CharString>
        <CharString name="K">
          22 -8 callsubr
          60 50 vstem
          464 -13 callsubr
          -8 -4 -3 -3 -2 hvcurveto
          -142 -252 -198 -362 rlineto
          600 -54 callsubr
          -643 vlineto
          -30 17 -10 21 21 12 18 12 7 vhcurveto
          105 193 47 87 172 -301 rlineto
          -3 2 6 -3 7 hhcurveto
          11 hlineto
          13 7 8 10 4 -1 3 -2 4 hvcurveto
          -188 328 31 56 144 258 rlineto
          -1 vlineto
          2 4 1 4 3 vvcurveto
          9 -8 10 -12 vhcurveto
          endchar
        </CharString>
        <CharString name="L">
          -8 0 49 651 -20 hstem
          51 50 vstem
          71 -17 callgsubr
          endchar
        </CharString>
        <CharString name="Lslash">
          0 49 651 -20 hstem
          81 50 vstem
          101 -17 callgsubr
          57 -247 rmoveto
          -10 -5 -5 51 callsubr
          98 48 30 callsubr
          -287 -140 rmoveto
          -9 -5 -6 51 callsubr
          58 34 30 callsubr
          endchar
        </CharString>
        <CharString name="M">
          143 21 -21 703 -20 hstem
          45 49 435 49 vstem
          538 703 -61 callsubr
        </CharString>
        <CharString name="N">
          65 callsubr
          hstemhm
          52 50 384 50 hintmask 01011100
          7 callsubr
          hintmask 10101100
          -8 callgsubr
          hintmask 01011100
          26 callsubr
          endchar
        </CharString>
        <CharString name="Ntilde">
          65 callsubr
          76 57 callgsubr
          hstemhm
          52 50 24 73 callgsubr
          14 50 hintmask 0101111001000000
          7 callsubr
          hintmask 1010111001000000
          -8 callgsubr
          hintmask 0101111001000000
          26 callsubr
          hintmask 0101111111000000
          346 186 -101 callgsubr
        </CharString>
        <CharString name="O">
          -95 callgsubr
          endchar
        </CharString>
        <CharString name="OE">
          599 -1 49 -48 49 290 35 callgsubr
          hstemhm
          50 49 388 50 hintmask 01111100
          527 -32 callsubr
          hintmask 10111100
          -21 4 -19 35 vhcurveto
          350 -63 callgsubr
          hintmask 01111100
          9 -73 callgsubr
          -339 602 339 -53 callgsubr
          -84 callgsubr
          -517 312 rmoveto
          -78 -166 -25 49 callsubr
          hintmask 10111100
          -65 callgsubr
          hintmask 01111100
          -94 callsubr
          endchar
        </CharString>
        <CharString name="Oacute">
          -95 callgsubr
          71 281 -104 callgsubr
        </CharString>
        <CharString name="Ocircumflex">
          -95 callgsubr
          9 301 -107 callgsubr
        </CharString>
        <CharString name="Odieresis">
          11 callgsubr
          63 46 callgsubr
          hstem
          50 49 70 -25 callgsubr
          50 -100 callgsubr
          91 216 -105 callsubr
        </CharString>
        <CharString name="Ograve">
          -95 callgsubr
          -33 281 -102 callsubr
        </CharString>
        <CharString name="Oslash">
          -95 callgsubr
          114 48 -50 callsubr
        </CharString>
        <CharString name="Otilde">
          11 callgsubr
          58 57 callgsubr
          hstemhm
          50 49 30 73 callgsubr
          13 49 hintmask 11111001
          -104 callsubr
          hintmask 11111111
          144 237 -101 callgsubr
        </CharString>
        <CharString name="P">
          -9 21 -21 328 49 273 50 hstem
          54 50 297 50 vstem
          98 -13 callsubr
          -34 -10 -9 -35 hvcurveto
          -636 vlineto
          -29 callsubr
          630 144 vlineto
          70 83 -31 -104 -63 -16 -75 -152 hvcurveto
          -54 hlineto
          -3 callsubr
          66 hlineto
          168 38 98 88 146 -117 40 -81 hvcurveto
          endchar
        </CharString>
        <CharString name="Q">
          70 -1 49 608 50 hstem
          50 49 389 49 vstem
          294 706 rmoveto
          -78 -166 -31 -221 hvcurveto
          -28 callgsubr
          41 68 9 43 54 vhcurveto
          38 -44 rlineto
          -3 3 9 -4 3 hhcurveto
          26 hlineto
          17 3 12 13 -11 hvcurveto
          -54 62 rlineto
          27 38 19 52 74 vvcurveto
          203 vlineto
          215 -164 37 -79 vhcurveto
          -50 vmoveto
          60 134 -26 -180 hvcurveto
          -196 vlineto
          -56 -13 -41 -19 -30 vhcurveto
          -102 119 rlineto
          4 -4 -8 3 -4 hhcurveto
          -16 hlineto
          -28 5 -16 -14 12 hvcurveto
          112 -133 rlineto
          -35 -42 -53 -7 -34 hhcurveto
          -62 -133 26 180 hvcurveto
          65 callgsubr
          vhcurveto
          endchar
        </CharString>
        <CharString name="R">
          -18 21 -21 321 49 280 50 hstem
          55 50 321 50 vstem
          97 -13 callsubr
          -34 -8 -12 -35 hvcurveto
          -633 -11 callgsubr
          630 128 vlineto
          80 113 -16 -125 -52 -26 -87 -118 hvcurveto
          -44 hlineto
          -22 -13 -12 -20 -10 7 -10 4 -6 hvcurveto
          231 -304 rlineto
          -5 4 8 -3 7 hhcurveto
          20 hlineto
          6 8 5 10 6 -3 4 -7 9 hvcurveto
          -1 vlineto
          -2 4 -216 284 rlineto
          11 hlineto
          149 46 107 82 139 -100 51 -142 hvcurveto
          endchar
        </CharString>
        <CharString name="S">
          -79 callgsubr
          endchar
        </CharString>
        <CharString name="Scaron">
          -79 callgsubr
          123 191 -87 callsubr
        </CharString>
        <CharString name="T">
          -7 71 callsubr
          hstem
          221 50 vstem
          -40 callgsubr
          endchar
        </CharString>
        <CharString name="Thorn">
          10 21 -21 218 49 274 49 hstem
          75 50 287 50 vstem
          176 590 rmoveto
          -3 callsubr
          83 hlineto
          67 86 -34 -104 -91 -50 -45 -102 hvcurveto
          25 callsubr
          81 108 146 -119 37 -82 hvcurveto
          -166 142 4 callgsubr
          -692 vlineto
          -29 callsubr
          692 70 callgsubr
        </CharString>
        <CharString name="U">
          -89 callgsubr
          endchar
        </CharString>
        <CharString name="Uacute">
          -89 callgsubr
          -160 -78 callsubr
        </CharString>
        <CharString name="Ucircumflex">
          -89 callgsubr
          -222 252 -107 callgsubr
        </CharString>
        <CharString name="Udieresis">
          55 -1 49 652 -20 83 46 callgsubr
          hstem
          39 50 45 -25 callgsubr
          57 -93 callgsubr
          -140 167 -105 callsubr
        </CharString>
        <CharString name="Ugrave">
          -89 callgsubr
          -264 232 -102 callsubr
        </CharString>
        <CharString name="V">
          44 20 -21 701 -20 hstem
          -4 539 vstem
          503 -13 callsubr
          -6 -10 -7 -6 -3 hvcurveto
          -218 -624 -219 624 rlineto
          6 -3 -10 7 -6 hhcurveto
          -12 hlineto
          38 callgsubr
          -12 -2 0 -2 1 -3 hvcurveto
          230 -646 rlineto
          -14 5 12 -14 22 hhcurveto
          23 12 12 15 5 hvcurveto
          228 647 rlineto
          1 3 0 2 2 vvcurveto
          12 -7 8 -13 vhcurveto
          endchar
        </CharString>
        <CharString name="W">
          270 20 -21 701 -20 hstem
          -18 778 vstem
          730 -13 callsubr
          -8 -9 -8 -7 -2 hvcurveto
          -171 -616 -42 152 -45 155 -42 152 rlinecurve
          14 -3 -10 15 -22 hhcurveto
          -21 -9 -14 -14 -4 hvcurveto
          -129 -461 -182 618 rlineto
          6 -3 -8 8 -8 hhcurveto
          -10 hlineto
          -14 -9 -11 -15 4 hvcurveto
          189 -644 rlineto
          -17 6 12 -14 23 hhcurveto
          23 11 14 17 6 hvcurveto
          123 442 123 -440 rlineto
          -19 5 14 -14 22 hhcurveto
          23 12 13 20 6 hvcurveto
          179 643 rlineto
          13 3 -7 12 67 callgsubr
        </CharString>
        <CharString name="X">
          -18 -8 callsubr
          -3 462 vstem
          418 5 callgsubr
          -294 -196 291 rlineto
          4 -3 -8 5 -6 hhcurveto
          -11 hlineto
          -16 -9 -18 -13 8 hvcurveto
          207 -308 1 -3 2 -2 2 -2 rlinecurve
          -3 -3 -2 -4 -2 -4 rrcurveto
          1 vlineto
          -196 -313 rlineto
          -14 -8 8 -17 17 46 callsubr
          4 10 5 4 3 hvcurveto
          59 97 65 103 60 97 173 -300 rcurveline
          -3 2 7 -3 6 46 callsubr
          17 7 16 13 -7 hvcurveto
          -181 315 -6 8 3 3 2 4 3 4 rlinecurve
          169 308 rlineto
          43 callgsubr
          endchar
        </CharString>
        <CharString name="Y">
          -63 callsubr
          endchar
        </CharString>
        <CharString name="Yacute">
          -63 callsubr
          -122 -78 callsubr
        </CharString>
        <CharString name="Ydieresis">
          -71 0 callgsubr
          83 46 callgsubr
          hstemhm
          84 8 callsubr
          2 50 11 33 callsubr
          -84 callsubr
          -102 -83 callgsubr
          hintmask 1111101010000000
          18 3 -4 -11 hvcurveto
          -10 vlineto
          -13 -3 -2 -18 -15 -3 2 13 vhcurveto
          10 vlineto
          -99 callgsubr
        </CharString>
        <CharString name="Z">
          -64 callsubr
          endchar
        </CharString>
        <CharString name="Zcaron">
          -64 callsubr
          -38 193 -87 callsubr
        </CharString>
        <CharString name="a">
          -97 callsubr
          endchar
        </CharString>
        <CharString name="aacute">
          -97 callsubr
          67 230 -104 callgsubr
        </CharString>
        <CharString name="acircumflex">
          -97 callsubr
          5 250 -107 callgsubr
        </CharString>
        <CharString name="acute">
          -149 62 callsubr
          244 732 -104 callgsubr
        </CharString>
        <CharString name="adieresis">
          -3 0 47 408 47 61 46 callgsubr
          hstemhm
          73 47 -2 -25 callgsubr
          -17 47 hintmask 1111101101000000
          hintmask 1111011110000000
          -106 callgsubr
          87 165 -12 callsubr
          hintmask 1111101101000000
          -107 callsubr
        </CharString>
        <CharString name="ae">
          254 -2 48 -46 47 187 48 173 47 hstemhm
          60 47 250 53 callsubr
          47 hintmask 10111110
          234 -82 callsubr
          -172 vlineto
          hintmask 01111110
          -98 callgsubr
          -174 vlineto
          hintmask 10111110
          -103 callsubr
          -66 -55 -25 -48 -30 vhcurveto
          48 -28 -53 25 -65 hhcurveto
          endchar
        </CharString>
        <CharString name="agrave">
          -97 callsubr
          -37 230 -102 callsubr
        </CharString>
        <CharString name="ampersand">
          54 -3 46 -21 -21 320 48 284 47 hstemhm
          50 47 -8 50 181 187 -161 47 hintmask 01111001
          247 -13 callsubr
          hintmask 01110101
          -114 -44 -75 -69 -60 37 -65 49 -71 hvcurveto
          59 -85 162 -222 19 -30 rrcurveto
          -20 13 -2 -2 10 hhcurveto
          47 -1 rlineto
          12 -1 6 9 -6 hvcurveto
          -271 380 rlineto
          -31 43 -47 64 54 vvcurveto
          59 38 38 71 57 41 -42 -54 -78 -57 -37 -53 -32 vhcurveto
          -1 -2 1 -4 20 -30 rlineto
          6 hlineto
          87 55 44 57 71 vvcurveto
          hintmask 01111001
          79 -63 64 -83 vhcurveto
          -89 -342 rmoveto
          -3 4 -1 0 -7 -4 -19 -11 -32 -19 -11 -9 rrcurveto
          -39 -35 4 -56 -59 vvcurveto
          hintmask 10111010
          -72 27 -100 168 46 54 12 14 31 vhcurveto
          3 1 1 3 -3 4 -22 27 rcurveline
          -4 5 0 0 -8 -3 rrcurveto
          -10 -26 -36 -7 -36 hhcurveto
          -92 -56 36 89 50 -5 43 27 27 hvcurveto
          11 11 29 18 18 9 rrcurveto
          3 2 -3 2 0 vvcurveto
          155 39 rmoveto
          51 callgsubr
          163 40 callgsubr
        </CharString>
        <CharString name="approxequal">
          208 57 callgsubr
          42 -40 callsubr
          -24 -170 -62 callgsubr
          endchar
        </CharString>
        <CharString name="aring">
          -3 0 47 408 47 -1 43 146 43 hstemhm
          73 47 34 42 108 42 24 47 hintmask 11011101
          -106 callgsubr
          hintmask 10111111
          5 231 -64 callgsubr
        </CharString>
        <CharString name="asciicircum">
          -102 256 476 hstem
          12 381 vstem
          203 56 callsubr
          -20 -13 -6 -15 -5 hvcurveto
          -149 -423 rlineto
          -2 -5 -2 -6 -5 vvcurveto
          -10 6 -6 17 callsubr
          4 1 15 5 hvcurveto
          144 395 145 -395 rlineto
          -15 6 3 -1 6 46 callsubr
          13 6 6 10 5 -2 6 -2 5 hvcurveto
          -150 423 rlineto
          15 -5 -12 6 -19 hhcurveto
          endchar
        </CharString>
        <CharString name="asciitilde">
          378 -40 callsubr
          endchar
        </CharString>
        <CharString name="asterisk">
          -153 476 114 -9 48 -12 113 -27 -20 22 -20 hstemhm
          40 115 -11 49 -10 114 hintmask 01001010
          hintmask 01001100
          59 629 48 callsubr
          hintmask 01001010
          52 hlineto
          hintmask 10001010
          -38 -36 -7 -9 -1 -11 8 -8 rlinecurve
          1 vlineto
          5 -7 7 -9 13 1 9 7 rlinecurve
          37 37 rlineto
          -52 vlineto
          -11 13 callgsubr
          9 22 callgsubr
          hintmask 01001010
          46 vlineto
          hintmask 01001001
          34 -35 8 -8 11 1 9 7 rlinecurve
          6 6 8 7 -1 12 -7 9 rlinecurve
          -39 41 rlineto
          56 hlineto
          -45 callgsubr
          hintmask 01010010
          -49 hlineto
          35 34 8 8 -1 11 -7 9 rlinecurve
          -6 6 -7 8 -12 -1 -9 -7 rlinecurve
          hintmask 00100010
          -37 -37 rlineto
          51 11 callsubr
          -9 hlineto
          -11 -9 -16 callsubr
          hintmask 01001010
          -51 vlineto
          hintmask 01001100
          -37 39 -9 7 -11 1 -8 -8 rlinecurve
          -7 -6 -7 -9 -1 -11 8 -8 rlinecurve
          36 -36 rlineto
          hintmask 00100100
          49 -31 rmoveto
          -1 0 1 1 -1 hvcurveto
          1 vlineto
          8 vlineto
          1 1 7 7 rlineto
          1 hlineto
          9 hlineto
          1 hlineto
          -1 0 0 1 vhcurveto
          6 -7 rlineto
          -1 1 0 1 -1 vhcurveto
          -6 vlineto
          -2 vlineto
          -3 -3 -7 -6 rlineto
          -9 hlineto
          -2 3 rlineto
          endchar
        </CharString>
        <CharString name="at">
          -26 -21 48 53 48 -41 51 249 49 46 48 hstemhm
          20 47 54 49 137 49 50 47 hintmask 1101111110000000
          237 530 rmoveto
          -119 -98 -68 -119 -35 callgsubr
          -116 95 -73 113 -1 vhcurveto
          66 -1 39 12 42 21 -3 15 -5 11 -8 20 -36 -18 -41 -13 -54 1 rrcurveto
          -72 1 -89 53 89 vvcurveto
          172 vlineto
          90 82 50 88 87 82 -42 -120 vhcurveto
          hintmask 1011111110000000
          -153 vlineto
          -12 -10 -17 -16 -13 -11 11 14 vhcurveto
          160 vlineto
          74 -50 39 -67 -69 -49 -38 -75 vhcurveto
          -130 vlineto
          hintmask 1101111110000000
          -75 45 -38 73 29 29 11 18 22 vhcurveto
          hintmask 1011111110000000
          -17 19 20 -5 18 hhcurveto
          40 37 36 50 hvcurveto
          168 vlineto
          hintmask 1101111110000000
          133 -107 56 -109 vhcurveto
          2 -143 rmoveto
          39 29 -18 -46 hvcurveto
          -160 vlineto
          -14 -9 -25 -21 -34 hhcurveto
          -38 -31 18 47 hvcurveto
          130 vlineto
          46 29 18 40 vhcurveto
          endchar
        </CharString>
        <CharString name="atilde">
          -3 0 47 408 47 56 57 callgsubr
          hstemhm
          73 47 -42 43 249 47 -39 46 hintmask 11111010
          -106 callgsubr
          hintmask 11110101
          140 186 -101 callgsubr
        </CharString>
        <CharString name="b">
          -46 -2 55 callsubr
          49 48 36 callgsubr
          69 73 callsubr
          -9 -16 callsubr
          -548 vlineto
          -107 72 -58 100 99 74 56 109 29 callgsubr
          106 -66 59 -99 -54 -50 -23 -27 -28 vhcurveto
          259 11 callsubr
          152 -276 rmoveto
          68 49 -39 -80 hvcurveto
          -171 vlineto
          -81 -57 -37 -68 -68 -56 38 80 vhcurveto
          229 vlineto
          36 27 41 25 64 hhcurveto
          endchar
        </CharString>
        <CharString name="backslash">
          -200 21 -21 hstem
          -5 300 vstem
          15 684 rmoveto
          -15 -8 -13 -13 4 hvcurveto
          251 -645 66 callgsubr
          8 -6 8 hhcurveto
          10 hlineto
          15 7 13 13 -4 hvcurveto
          -249 645 rlineto
          8 -4 -9 5 -6 hhcurveto
          endchar
        </CharString>
        <CharString name="bar">
          -296 -92 822 hstem
          76 50 vstem
          95 730 rmoveto
          -30 callsubr
          endchar
        </CharString>
        <CharString name="braceleft">
          55 callgsubr
          103 48 vstem
          291 687 rmoveto
          -115 -2 -73 -46 -124 vvcurveto
          -28 vlineto
          -40 1 0 -73 -64 hhcurveto
          -5 hlineto
          -16 -21 -9 -23 -24 21 -9 16 hvcurveto
          5 hlineto
          64 0 -74 -40 -1 hvcurveto
          -25 vlineto
          -124 73 -46 112 -2 vhcurveto
          8 9 7 7 2 hvcurveto
          4 15 rlineto
          11 -53 callsubr
          -87 2 -53 35 87 vvcurveto
          27 vlineto
          41 1 72 -49 31 vhcurveto
          49 32 0 73 -1 41 rrcurveto
          28 vlineto
          89 53 33 84 2 vhcurveto
          7 10 7 7 2 hvcurveto
          3 9 rlineto
          14 4 -8 11 67 callgsubr
        </CharString>
        <CharString name="braceright">
          55 callgsubr
          175 47 vstem
          37 687 rmoveto
          -7 -9 -8 -6 -2 hvcurveto
          -3 -9 rlineto
          -14 -5 9 -11 14 hhcurveto
          87 -2 54 -33 -89 vvcurveto
          -28 vlineto
          -1 -42 -3 -73 51 -31 rrcurveto
          -47 -32 0 -72 -40 vvcurveto
          -27 vlineto
          -87 -54 -35 -84 -2 vhcurveto
          -6 -10 -6 -8 -2 hvcurveto
          -4 -14 rlineto
          -12 -21 callsubr
          116 2 72 46 124 vvcurveto
          25 vlineto
          40 -1 0 74 64 hhcurveto
          6 hlineto
          15 21 9 24 23 -21 9 -15 hvcurveto
          -6 hlineto
          -64 0 73 40 1 hvcurveto
          28 vlineto
          124 -72 46 -113 2 vhcurveto
          endchar
        </CharString>
        <CharString name="bracketleft">
          -107 0 48 603 48 hstem
          108 49 vstem
          146 699 rmoveto
          -33 -5 -19 -21 hvcurveto
          1 -621 rlineto
          -18 4 -20 34 vhcurveto
          139 hlineto
          11 -56 callgsubr
          8 -11 vhcurveto
          -129 603 129 hlineto
          11 2 callsubr
          -11 vhcurveto
          endchar
        </CharString>
        <CharString name="bracketright">
          -104 0 48 603 48 hstem
          256 49 vstem
          127 699 12 callgsubr
          -10 -38 callsubr
          129 -603 -129 hlineto
          -11 34 callgsubr
          11 vhcurveto
          139 hlineto
          34 5 21 18 hvcurveto
          620 vlineto
          21 -5 19 -33 vhcurveto
          endchar
        </CharString>
        <CharString name="breve">
          553 58 hstem
          168 283 vstem
          418 693 rmoveto
          -6 3 -1 -2 -1 -4 rrcurveto
          -49 -15 -40 -30 -45 hhcurveto
          -45 -41 30 49 -15 hvcurveto
          -1 4 -1 2 -6 -3 -31 -14 rcurveline
          -2 -2 0 -2 1 -4 rrcurveto
          -96 26 74 -22 41 hhcurveto
          41 75 22 96 24 hvcurveto
          1 4 0 2 -2 2 rrcurveto
          endchar
        </CharString>
        <CharString name="brokenbar">
          -307 3 681 hstem
          73 48 vstem
          93 684 rmoveto
          -12 -36 callsubr
          -240 -22 callsubr
          4 callsubr
          hvcurveto
          240 vlineto
          11 -67 callsubr
          -9 -402 -48 callgsubr
          -240 48 callgsubr
          240 45 callgsubr
          -11 vhcurveto
          endchar
        </CharString>
        <CharString name="bullet">
          146 55 174 55 hstem
          167 55 174 55 vstem
          309 430 rmoveto
          -78 -64 -64 -78 -78 64 -64 78 78 64 64 78 78 -64 64 -78 hvcurveto
          -55 vmoveto
          49 38 -38 -49 -49 -38 -38 -49 -49 -38 38 49 49 38 38 49 hvcurveto
          endchar
        </CharString>
        <CharString name="c">
          -2 -2 48 408 -66 callgsubr
          70 58 104 3 vhcurveto
          -58 callgsubr
          hvcurveto
          -5 callsubr
          107 -71 58 -99 hvcurveto
          endchar
        </CharString>
        <CharString name="caron">
          537 156 hstem
          149 298 vstem
          426 693 -87 callsubr
        </CharString>
        <CharString name="ccedilla">
          -2 -269 43 126 43 55 12 -12 60 callsubr
          hstemhm
          70 48 177 42 30 47 hintmask 11101110
          hintmask 11101111
          26 callgsubr
          70 58 104 3 vhcurveto
          -58 callgsubr
          hvcurveto
          hintmask 11011111
          -5 callsubr
          hvcurveto
          hintmask 11101111
          107 -71 58 -99 vhcurveto
          hintmask 11101110
          -8 -491 -69 callgsubr
        </CharString>
        <CharString name="cedilla">
          -250 43 126 43 hstem
          324 42 vstem
          265 30 -69 callgsubr
        </CharString>
        <CharString name="cent">
          -2 20 -21 502 -20 hstem
          70 48 104 47 98 47 vstem
          242 684 rmoveto
          -11 -9 -16 callsubr
          -164 vlineto
          -89 -8 -63 -55 -101 vvcurveto
          -174 vlineto
          -98 63 -58 89 -8 vhcurveto
          -163 vlineto
          -11 13 callgsubr
          7 22 callgsubr
          163 vlineto
          84 9 58 57 3 95 rrcurveto
          -58 callgsubr
          hvcurveto
          -1 -67 -43 -37 -54 -9 rrcurveto
          405 vlineto
          55 -9 43 -37 -69 vvcurveto
          24 callsubr
          98 -59 57 -86 9 hvcurveto
          164 11 callsubr
          -131 -520 rmoveto
          172 vlineto
          71 45 38 59 8 vhcurveto
          -406 vlineto
          -59 7 -45 38 72 vvcurveto
          endchar
        </CharString>
        <CharString name="circumflex">
          -66 549 203 hstem
          60 321 vstem
          219 752 -107 callgsubr
        </CharString>
        <CharString name="colon">
          -308 -3 23 callsubr
          216 75 callsubr
          40 75 callgsubr
          96 441 14 callgsubr
          -330 vmoveto
          -105 callgsubr
          330 9 callgsubr
        </CharString>
        <CharString name="comma">
          -398 -29 callgsubr
        </CharString>
        <CharString name="copyright">
          113 0 48 99 44 370 44 103 48 hstem
          20 48 84 44 225 43 88 -26 callgsubr
          -2 -151 rmoveto
          -91 -67 -51 -99 hvcurveto
          -158 vlineto
          -96 67 -54 91 88 63 53 94 3 vhcurveto
          11 -7 7 -11 vhcurveto
          -8 hlineto
          -9 -8 -7 -11 hvcurveto
          -69 -1 -50 -34 -60 hhcurveto
          -63 -51 35 72 hvcurveto
          156 vlineto
          72 51 35 63 61 50 -35 -71 -10 8 -7 9 vhcurveto
          8 hlineto
          11 7 7 10 97 -65 53 -89 hvcurveto
          2 103 rmoveto
          -14 callsubr
          endchar
        </CharString>
        <CharString name="currency">
          102 124 49 318 48 hstem
          97 49 318 48 vstem
          86 575 rmoveto
          -6 -5 -2 -4 -4 hvcurveto
          -5 -5 72 callsubr
          -6 vvcurveto
          -4 2 -5 3 -4 vhcurveto
          76 -76 rlineto
          -29 -37 -15 -46 -46 vvcurveto
          -46 15 -46 30 -38 vhcurveto
          -77 -76 rlineto
          -3 -4 -2 -5 -5 vvcurveto
          -5 2 -5 3 -5 vhcurveto
          5 -5 rlineto
          -3 5 5 -2 5 hhcurveto
          5 5 2 3 4 hvcurveto
          76 77 rlineto
          -29 38 46 -15 46 hhcurveto
          45 46 14 30 38 hvcurveto
          76 -77 rlineto
          -3 4 5 -2 4 hhcurveto
          6 5 2 4 4 hvcurveto
          5 5 rlineto
          4 4 2 5 6 vvcurveto
          4 -2 5 -3 4 vhcurveto
          -77 76 rlineto
          30 38 15 46 46 vvcurveto
          46 -15 46 -30 37 vhcurveto
          77 76 rlineto
          4 4 1 5 5 vvcurveto
          5 -1 6 -4 4 vhcurveto
          -5 5 rlineto
          4 -4 -6 1 -5 hhcurveto
          -5 -5 -1 -4 -4 hvcurveto
          -76 -76 rlineto
          30 -37 -47 15 -45 hhcurveto
          -47 -46 -15 -31 -38 hvcurveto
          -75 77 rlineto
          3 -4 -5 2 -4 hhcurveto
          219 -84 rmoveto
          40 41 -16 -31 31 hvcurveto
          31 -31 16 -41 -41 vvcurveto
          -40 -16 -41 -31 -31 vhcurveto
          -31 -31 -41 -15 -40 hhcurveto
          -41 -41 15 31 -31 hvcurveto
          -31 31 -15 41 40 vvcurveto
          41 15 41 31 31 vhcurveto
          31 31 41 16 41 hhcurveto
          endchar
        </CharString>
        <CharString name="d">
          3 -2 48 406 48 hstem
          73 48 36 callgsubr
          388 -50 callgsubr
        </CharString>
        <CharString name="dagger">
          -65 422 50 228 -20 hstem
          196 50 vstem
          80 472 39 callsubr
          116 -524 hlineto
          -46 callsubr
          524 117 15 callgsubr
          -117 209 hlineto
          11 -67 callsubr
          -12 -19 callsubr
          -209 vlineto
          endchar
        </CharString>
        <CharString name="daggerdbl">
          -65 173 50 199 50 228 -20 hstem
          196 50 vstem
          80 472 rmoveto
          -10 -10 -7 -10 hvcurveto
          -14 vlineto
          -11 -1 10 77 callsubr
          116 -199 -116 hlineto
          -10 -10 -7 -10 hvcurveto
          -14 vlineto
          -11 -1 10 77 callsubr
          116 -275 hlineto
          -46 callsubr
          275 117 15 callgsubr
          -117 199 117 hlineto
          19 callgsubr
          -117 209 hlineto
          11 -67 callsubr
          -12 -19 callsubr
          -209 vlineto
          endchar
        </CharString>
        <CharString name="degree">
          -69 500 50 158 50 hstem
          90 50 158 50 vstem
          219 758 rmoveto
          -71 -58 -58 -71 -71 58 -58 71 71 58 58 71 71 -58 58 -71 hvcurveto
          -50 vmoveto
          45 34 -34 -45 -45 -34 -34 -45 -45 -34 34 45 45 34 34 45 hvcurveto
          endchar
        </CharString>
        <CharString name="dieresis">
          -146 563 46 callgsubr
          hstem
          39 -25 callgsubr
          vstem
          255 667 -105 callsubr
        </CharString>
        <CharString name="divide">
          32 58 23 callsubr
          97 48 71 75 callsubr
          207 75 callgsubr
          75 317 rmoveto
          -12 -8 -8 -11 hvcurveto
          -9 vlineto
          -11 8 -9 12 vhcurveto
          390 hlineto
          -45 callgsubr
          -202 185 14 callgsubr
          -330 vmoveto
          -105 callgsubr
          330 9 callgsubr
        </CharString>
        <CharString name="dollar">
          54 -1 48 602 50 0 -20 hstemhm
          39 48 -20 52 123 50 132 49 hintmask 10110110
          261 730 12 callgsubr
          -12 vlineto
          hintmask 10101110
          -115 -10 -60 -73 -79 vvcurveto
          -94 62 -47 113 -57 vhcurveto
          -292 vlineto
          hintmask 11010110
          -63 3 -92 32 119 vvcurveto
          10 -9 6 -11 76 callsubr
          -11 -8 -11 -10 hvcurveto
          4 -145 109 -49 90 -3 rrcurveto
          -101 vlineto
          -46 callsubr
          103 vlineto
          125 14 56 80 77 vvcurveto
          94 -67 52 -93 44 vhcurveto
          -7 3 -7 3 -7 4 rrcurveto
          277 vlineto
          70 -8 53 -44 6 -81 rrcurveto
          -16 1 8 -7 11 hhcurveto
          9 -7 callsubr
          -5 114 -79 63 -93 9 rrcurveto
          12 vlineto
          11 -67 callsubr
          21 -417 rmoveto
          65 -32 65 -33 -76 vvcurveto
          -63 -41 -49 -91 -11 vhcurveto
          265 vlineto
          -1 1 0 1 vhcurveto
          hintmask 11001110
          -175 222 rmoveto
          56 40 49 83 9 vhcurveto
          -253 vlineto
          -73 38 -50 40 61 vvcurveto
          endchar
        </CharString>
        <CharString name="dotaccent">
          558 114 hstem
          230 113 vstem
          285 672 rmoveto
          -46 -65 callsubr
          46 -80 callgsubr
          endchar
        </CharString>
        <CharString name="dotlessi">
          -77 callgsubr
          endchar
        </CharString>
        <CharString name="e">
          -94 callgsubr
          endchar
        </CharString>
        <CharString name="eacute">
          -94 callgsubr
          63 230 -104 callgsubr
        </CharString>
        <CharString name="ecircumflex">
          -94 callgsubr
          1 250 -107 callgsubr
        </CharString>
        <CharString name="edieresis">
          -17 -2 48 188 48 172 48 61 46 callgsubr
          hstemhm
          70 48 -7 -25 callgsubr
          -13 47 hintmask 1111110110100000
          hintmask 1111101111000000
          244 502 rmoveto
          -100 -74 -56 -109 hvcurveto
          -174 vlineto
          -103 callsubr
          vhcurveto
          83 165 -12 callsubr
          hintmask 1111110110100000
          -107 callsubr
        </CharString>
        <CharString name="egrave">
          -94 callgsubr
          -41 230 -102 callsubr
        </CharString>
        <CharString name="eight">
          56 0 48 285 48 271 48 hstemhm
          60 49 -30 48 287 48 -30 49 hintmask 11110100
          269 -13 callsubr
          hintmask 11101100
          -112 -2 -78 -56 -124 vvcurveto
          -57 18 -70 69 -30 vhcurveto
          hintmask 11110010
          -76 -24 -30 -75 -80 vvcurveto
          -86 38 -92 171 -4 vhcurveto
          171 4 41 92 86 vvcurveto
          80 -33 75 -77 24 vhcurveto
          hintmask 11110100
          70 30 21 70 57 vvcurveto
          124 -80 56 -113 2 vhcurveto
          -367 vmoveto
          hintmask 11110010
          133 30 -79 -73 -95 -71 -38 -92 -91 -69 38 95 hvcurveto
          hintmask 11110100
          79 27 73 133 vhcurveto
          hintmask 11101100
          319 vmoveto
          84 -2 61 -43 -89 vvcurveto
          -78 -39 -59 -106 -106 -36 65 72 89 59 43 83 2 vhcurveto
          endchar
        </CharString>
        <CharString name="ellipsis">
          21 -3 75 callsubr
          40 23 callsubr
          53 23 callsubr
          53 75 callgsubr
          263 111 -103 callgsubr
          167 35 -103 callgsubr
          -334 35 -96 callsubr
        </CharString>
        <CharString name="emdash">
          -51 339 47 hstem
          34 381 vstem
          53 39 callgsubr
          343 -19 callgsubr
          10 59 callgsubr
          endchar
        </CharString>
        <CharString name="endash">
          -279 339 47 hstem
          20 188 vstem
          39 39 callgsubr
          149 22 callgsubr
          10 vlineto
          10 -53 callsubr
          endchar
        </CharString>
        <CharString name="equal">
          72 274 48 76 48 -42 callgsubr
          endchar
        </CharString>
        <CharString name="eth">
          -2 48 406 48 hstem
          93 48 36 callgsubr
          408 -50 callgsubr
        </CharString>
        <CharString name="exclam">
          -293 -3 23 callsubr
          589 -20 hstemhm
          50 35 -2 49 -3 35 hintmask 11101000
          102 700 12 callgsubr
          -479 -38 callsubr
          10 22 callgsubr
          479 11 callsubr
          hintmask 11110100
          -6 -589 -96 callsubr
        </CharString>
        <CharString name="exclamdown">
          -285 389 23 callsubr
          hstemhm
          50 35 -2 49 -3 35 hintmask 11010000
          112 -200 rmoveto
          11 9 8 11 hvcurveto
          479 11 callsubr
          -10 -19 callsubr
          -479 -38 callsubr
          hintmask 11101000
          4 589 rmoveto
          47 11 8 41 hvcurveto
          13 vlineto
          46 -11 6 -47 -47 -9 -6 -46 vhcurveto
          -13 vlineto
          -43 9 -6 47 vhcurveto
          35 vmoveto
          -17 -4 2 15 hvcurveto
          -25 callsubr
          17 19 4 -2 -15 vhcurveto
          -10 vlineto
          -13 -4 -4 -19 vhcurveto
          endchar
        </CharString>
        <CharString name="f">
          -171 21 -21 456 63 callgsubr
          hintmask 11101000
          -43 callsubr
          hintmask 11111000
          -33 callsubr
          endchar
        </CharString>
        <CharString name="fi">
          33 21 -21 456 44 118 35 32 47 -35 35 hstemhm
          26 64 20 47 221 35 -6 57 -7 35 hintmask 1111001010000000
          hintmask 1110101101000000
          -75 callsubr
          hintmask 1111001010000000
          32 callgsubr
          -11 vhcurveto
          -33 callsubr
          357 1 24 callgsubr
          hintmask 1111011010000000
          45 callsubr
          -2 8 -18 vhcurveto
          -10 231 -96 callsubr
        </CharString>
        <CharString name="five">
          61 -4 49 386 49 172 48 hstem
          87 49 294 48 vstem
          137 -13 callsubr
          -27 -23 0 -39 hvcurveto
          -254 vlineto
          -30 11 -14 25 20 11 16 20 30 vhcurveto
          13 19 24 19 57 hhcurveto
          150 -3 -143 -61 -1 hvcurveto
          -13 vlineto
          -118 -75 -51 -91 -52 -67 21 71 -29 vhcurveto
          6 -3 -8 6 -7 hhcurveto
          -13 hlineto
          -15 -5 -14 -12 4 hvcurveto
          -89 36 85 -38 74 hhcurveto
          111 103 61 158 72 12 193 -206 -73 -64 -50 -13 -11 hvcurveto
          235 304 vlineto
          42 callgsubr
        </CharString>
        <CharString name="fl">
          123 0 47 409 63 callgsubr
          249 47 hintmask 11101100
          -43 callsubr
          hintmask 11111100
          -33 callsubr
          356 230 -41 callsubr
          557 vlineto
          11 -24 callsubr
        </CharString>
        <CharString name="florin">
          -84 331 48 274 48 hstem
          84 59 57 157 vstem
          63 379 rmoveto
          -11 -2 -35 callsubr
          -9 vlineto
          -11 2 -24 callgsubr
          58 hlineto
          1 hlineto
          -38 -504 rlineto
          -16 -1 13 -2 16 hhcurveto
          17 13 2 16 1 hvcurveto
          45 680 rlineto
          114 8 34 32 67 hhcurveto
          31 41 -11 -2 6 hvcurveto
          11 -3 2 4 6 vvcurveto
          23 vlineto
          14 0 5 -25 4 vhcurveto
          -29 5 -26 4 -22 -1 -116 -5 -25 -73 -8 -101 -11 -144 rcurveline
          1 -2 -1 0 -2 hhcurveto
          91 hmoveto
          51 callgsubr
          133 40 callgsubr
        </CharString>
        <CharString name="four">
          48 21 -21 224 48 428 -20 hstem
          334 48 vstem
          343 -13 callsubr
          -21 -10 -13 -15 -10 hvcurveto
          -260 -390 -6 -8 -6 -15 5 -13 rlinecurve
          -13 5 9 -9 27 hhcurveto
          258 -204 hlineto
          -12 -21 callsubr
          9 -6 callgsubr
          12 hvcurveto
          204 114 vlineto
          11 7 8 12 hvcurveto
          9 vlineto
          11 -7 -60 callsubr
          -114 385 hlineto
          23 -9 20 -30 vhcurveto
          -9 -65 rmoveto
          -363 -240 vlineto
          81 116 79 129 80 118 rrcurveto
          endchar
        </CharString>
        <CharString name="four.dnom">
          71 callgsubr
          hstem
          312 39 vstem
          317 444 52 callgsubr
          -44 callgsubr
          61 vlineto
          18 callsubr
          -12 callgsubr
          -216 vlineto
          endchar
        </CharString>
        <CharString name="fraction">
          21 -21 hstem
          -7 615 vstem
          586 738 -68 callsubr
          endchar
        </CharString>
        <CharString name="g">
          11 -250 47 200 48 409 47 hstemhm
          70 48 -38 47 240 47 hintmask 11110100
          244 501 -73 callsubr
          -174 vlineto
          -108 74 -57 100 43 44 13 26 36 vhcurveto
          -111 vlineto
          -89 -51 -39 -69 vhcurveto
          hintmask 11101100
          -65 74 callgsubr
          hvcurveto
          11 -8 7 -12 vhcurveto
          22 callsubr
          -7 -11 hvcurveto
          -103 2 69 -57 96 hhcurveto
          100 67 57 117 hvcurveto
          412 vlineto
          hintmask 11110100
          108 -71 57 -99 vhcurveto
          -47 vmoveto
          67 56 -39 -79 hvcurveto
          -238 vlineto
          -23 -11 -43 -30 -69 hhcurveto
          -66 -60 37 81 hvcurveto
          172 vlineto
          80 54 39 72 vhcurveto
          endchar
        </CharString>
        <CharString name="germandbls">
          9 0 49 633 50 hstem
          62 48 93 52 35 54 82 50 vstem
          198 56 callsubr
          -56 -80 -29 -96 hvcurveto
          -47 vlineto
          -2 -546 rlineto
          -29 callsubr
          582 vlineto
          46 28 40 60 44 48 -26 -58 -41 -17 -26 -16 -26 vhcurveto
          -23 -37 -31 -34 -38 vvcurveto
          -52 27 -31 58 -23 vhcurveto
          69 -27 69 -22 -88 vvcurveto
          -71 -60 -33 -92 vhcurveto
          25 callsubr
          59 98 118 -97 32 -62 25 hvcurveto
          -41 17 -21 20 32 vvcurveto
          21 20 23 24 35 vhcurveto
          23 33 22 35 50 vvcurveto
          100 -81 34 -65 vhcurveto
          endchar
        </CharString>
        <CharString name="grave">
          -139 62 callsubr
          121 732 -102 callsubr
        </CharString>
        <CharString name="greater">
          61 140 366 hstem
          50 468 vstem
          88 -30 callgsubr
          endchar
        </CharString>
        <CharString name="greaterequal">
          65 22 48 hstem
          50 472 vstem
          92 -30 callgsubr
          -431 -286 rmoveto
          -13 -7 -11 -14 -13 8 -10 12 hvcurveto
          426 76 callgsubr
          9 14 12 -4 13 -15 hvcurveto
          endchar
        </CharString>
        <CharString name="guillemotleft">
          51 74 callsubr
          60 458 vstem
          493 533 rmoveto
          -47 callgsubr
          -171 hmoveto
          -47 callgsubr
          endchar
        </CharString>
        <CharString name="guillemotright">
          31 74 callsubr
          30 458 vstem
          226 533 rmoveto
          -80 callsubr
          -171 hmoveto
          -80 callsubr
          endchar
        </CharString>
        <CharString name="guilsinglleft">
          -160 74 callsubr
          59 287 vstem
          321 533 rmoveto
          -4 -3 -1 -1 -3 hvcurveto
          -1 -1 -1 0 0 vvcurveto
          -229 -174 -5 -4 -4 -3 -3 -4 rlinecurve
          -6 -7 -3 -8 -10 vvcurveto
          -5 vlineto
          -2 1 -3 -2 vvcurveto
          -1 1 -1 0 vhcurveto
          1 -4 2 -4 2 -3 rrcurveto
          1 0 -1 0 hvcurveto
          6 -7 6 -4 230 -173 rlineto
          -2 1 2 -1 2 hhcurveto
          -1 2 3 0 3 hhcurveto
          3 hlineto
          2 hlineto
          4 1 3 1 3 3 rrcurveto
          1 0 1 1 hhcurveto
          2 2 1 3 2 3 rrcurveto
          1 1 2 2 vvcurveto
          1 1 0 2 2 2 -1 2 2 vvcurveto
          -3 6 -3 5 rlineto
          -1 -1 1 1 hvcurveto
          -4 3 34 callsubr
          1 1 1 1 hvcurveto
          1 1 1 0 hvcurveto
          3 3 rlineto
          1 1 1 1 1 vhcurveto
          3 7 rlineto
          3 vlineto
          2 0 2 -1 2 vhcurveto
          1 vlineto
          -5 10 -2 3 -2 2 -3 1 rlinecurve
          -4 2 rlineto
          -2 hlineto
          0 -1 1 -1 vhcurveto
          endchar
        </CharString>
        <CharString name="guilsinglright">
          -160 74 callsubr
          0 287 vstem
          25 533 rmoveto
          -80 callsubr
          endchar
        </CharString>
        <CharString name="h">
          -31 44 callsubr
          hstem
          58 48 246 48 vstem
          244 61 callsubr
          -58 -54 -28 -31 -17 hvcurveto
          -2 -4 -2 -7 -4 vvcurveto
          -15 1 -18 callgsubr
          7 4 3 6 6 hvcurveto
          30 30 33 8 33 hhcurveto
          59 50 -39 -80 1 callsubr
          9 hlineto
          11 8 58 callsubr
          106 -67 59 -89 vhcurveto
          -166 229 rmoveto
          -1 callsubr
          -691 -54 callgsubr
          691 49 callgsubr
        </CharString>
        <CharString name="hungarumlaut">
          553 209 hstem
          257 24 119 24 vstem
          354 752 rmoveto
          -16 callgsubr
          -143 hmoveto
          -16 callgsubr
          endchar
        </CharString>
        <CharString name="hyphen">
          -20 callsubr
        </CharString>
        <CharString name="i">
          -303 33 callgsubr
          137 23 callsubr
          hstemhm
          42 35 -6 57 -7 35 hintmask 11110100
          91 501 24 callgsubr
          45 callsubr
          -2 8 -18 vhcurveto
          hintmask 11111010
          -10 231 -96 callsubr
        </CharString>
        <CharString name="iacute">
          -77 callgsubr
          57 231 -104 callgsubr
        </CharString>
        <CharString name="icircumflex">
          -77 callgsubr
          -5 251 -107 callgsubr
        </CharString>
        <CharString name="idieresis">
          -339 33 callgsubr
          82 46 callgsubr
          hstemhm
          -51 8 callsubr
          8 48 7 33 callsubr
          -76 callgsubr
          77 166 -12 callsubr
          -97 callgsubr
          hintmask 1111101010000000
          -99 callgsubr
        </CharString>
        <CharString name="igrave">
          -77 callgsubr
          -47 231 -102 callsubr
        </CharString>
        <CharString name="infinity">
          87 254 38 171 37 hstem
          25 40 464 40 vstem
          416 47 callgsubr
          -55 -34 -38 -46 -32 hvcurveto
          46 -32 -26 38 -59 hhcurveto
          -35 hlineto
          -70 -48 -49 -76 -75 48 -46 70 hvcurveto
          35 hlineto
          56 30 41 47 29 hvcurveto
          -51 38 20 -37 65 hhcurveto
          35 hlineto
          70 48 49 76 75 -48 46 -70 hvcurveto
          -275 -38 rmoveto
          42 27 -50 -36 24 hvcurveto
          -35 -23 -30 -50 -40 hhcurveto
          -31 hlineto
          -50 -30 31 53 54 30 33 50 hvcurveto
          304 1 rmoveto
          50 30 -31 -53 -54 -30 -33 -50 hvcurveto
          -31 hlineto
          -49 -23 57 34 -26 hvcurveto
          34 24 36 46 38 hhcurveto
          endchar
        </CharString>
        <CharString name="integral">
          -117 -45 38 -24 32 44 35 498 35 44 44 -38 38 hstemhm
          2 36 43 35 -9 42 98 42 -15 23 callsubr
          hintmask 1011011011010000
          hintmask 0111011101010000
          60 80 rmoveto
          -47 -9 -6 -43 -1 hvcurveto
          -1 -13 -1 -31 4 -13 17 -5 rlinecurve
          hintmask 1011011011010000
          4 -3 8 -1 11 -2 rrcurveto
          -5 27 24 -3 20 hhcurveto
          100 63 57 78 8 hvcurveto
          1 10 1 9 10 vvcurveto
          80 -36 69 -36 80 vhcurveto
          -34 71 -34 67 56 vvcurveto
          6 0 6 1 5 vhcurveto
          11 85 64 17 51 2 rrcurveto
          hintmask 1011011010110000
          -1 -6 -1 -6 -8 vvcurveto
          -13 vlineto
          -46 -2 9 -6 47 hhcurveto
          47 11 6 46 2 hvcurveto
          13 vlineto
          23 -3 13 -11 6 vhcurveto
          -4 3 rlineto
          5 -16 -34 8 -39 hhcurveto
          -105 -56 -59 -83 -12 hvcurveto
          -1 -5 0 -6 -6 vvcurveto
          -54 32 -78 36 -79 vhcurveto
          hintmask 1011011101010000
          38 -83 34 -76 -62 vvcurveto
          -99 -82 -18 -44 vhcurveto
          -8 hlineto
          2 7 1 8 10 vvcurveto
          1 13 rlineto
          hintmask 0111011101010000
          41 1 -11 8 -47 hhcurveto
          -1 -35 rmoveto
          19 4 -4 -13 hvcurveto
          -1 -10 rlineto
          hintmask 1011011101010000
          -15 -4 -2 -19 vhcurveto
          -2 hlineto
          -16 3 rlineto
          -2 3 -1 4 7 vvcurveto
          1 10 rlineto
          hintmask 0111011101010000
          15 4 2 17 vhcurveto
          hintmask 1011101010110000
          271 612 rmoveto
          4 hlineto
          14 -4 rlineto
          3 -2 2 -5 -6 vvcurveto
          -10 vlineto
          -15 -1 -4 -2 -19 hhcurveto
          -15 -5 2 11 hvcurveto
          14 vlineto
          15 4 2 17 vhcurveto
          endchar
        </CharString>
        <CharString name="j">
          -259 -250 47 821 23 callsubr
          hstemhm
          81 35 -5 48 1 35 hintmask 11101000
          131 500 rmoveto
          -1 callsubr
          -566 vlineto
          -92 -50 -27 -67 2 vhcurveto
          -11 -9 58 callgsubr
          105 -3 61 46 121 vvcurveto
          566 -73 callgsubr
          hintmask 11110100
          -2 232 -96 callsubr
        </CharString>
        <CharString name="k">
          -36 21 -21 hstem
          59 47 vstem
          78 730 12 callgsubr
          -672 vlineto
          -30 14 -9 21 23 7 12 25 17 vhcurveto
          10 14 37 63 61 102 113 -206 rcurveline
          -4 3 4 -6 9 hhcurveto
          22 hlineto
          9 4 4 6 4 -2 5 -3 5 hvcurveto
          -131 240 57 94 57 95 6 13 8 15 rlinecurve
          2 3 1 3 3 vvcurveto
          6 -4 4 -9 vhcurveto
          -22 hlineto
          -10 -3 -3 -3 -2 hvcurveto
          -49 -83 -41 -71 -35 -58 -71 -120 -41 -69 -15 -23 rrcurveto
          641 vlineto
          11 -24 callsubr
        </CharString>
        <CharString name="l">
          -213 0 47 hstem
          70 47 vstem
          90 730 -41 callsubr
          557 vlineto
          11 -24 callsubr
        </CharString>
        <CharString name="less">
          65 140 366 hstem
          50 468 -34 callgsubr
          endchar
        </CharString>
        <CharString name="lessequal">
          65 22 48 hstem
          50 472 -34 callgsubr
          -404 -434 rmoveto
          -15 -4 -13 -12 -14 8 -9 11 hvcurveto
          426 1 callgsubr
          10 13 14 -7 11 -13 hvcurveto
          endchar
        </CharString>
        <CharString name="logicalnot">
          -27 452 48 hstem
          444 48 vstem
          12 500 rmoveto
          2 callgsubr
          -8 12 vhcurveto
          432 -139 hlineto
          -37 callsubr
          10 -19 callgsubr
          152 vlineto
          28 4 7 -30 vhcurveto
          endchar
        </CharString>
        <CharString name="lozenge">
          181 -24 51 460 51 hstem
          71 50 457 50 vstem
          83 282 rmoveto
          -21 -21 10 -15 13 -15 242 -242 rcurveline
          12 -11 17 -11 22 22 237 245 rcurveline
          22 22 -11 16 -11 13 -239 239 rcurveline
          -15 13 -15 10 -21 -21 rrcurveto
          24 -39 rmoveto
          229 -228 -225 -232 -232 231 rlineto
          endchar
        </CharString>
        <CharString name="lslash">
          -194 0 47 hstemhm
          14 70 26 47 hintmask 10100000
          130 730 -41 callsubr
          264 vlineto
          97 41 10 4 3 12 -3 10 rlinecurve
          -1 3 -4 11 -12 5 -10 -4 rlinecurve
          -80 -34 rlineto
          245 vlineto
          11 -67 callsubr
          hintmask 11100000
          -113 -319 rmoveto
          -14 -6 -1 -10 4 -11 1 -3 rcurveline
          5 -10 10 -5 13 5 29 12 rcurveline
          10 4 5 9 -6 12 -2 4 rcurveline
          -5 12 -9 3 -11 -4 rrcurveto
          endchar
        </CharString>
        <CharString name="m">
          272 44 callsubr
          hstem
          66 47 246 47 246 47 cntrmask 00111000
          545 61 callsubr
          -57 -49 -42 callsubr
          28 15 43 hhcurveto
          68 40 -39 -80 -23 callsubr
          317 vlineto
          106 -56 59 -98 vhcurveto
          -460 -3 -74 callsubr
          -459 vlineto
          -12 8 -49 callsubr
          459 -73 callgsubr
          159 3 rmoveto
          -57 -46 -42 callsubr
          25 15 43 hhcurveto
          68 40 -39 -80 -23 callsubr
          317 vlineto
          106 -56 59 -98 vhcurveto
          endchar
        </CharString>
        <CharString name="macron">
          2 553 48 hstem
          50 409 vstem
          70 601 rmoveto
          -12 34 callgsubr
          12 vhcurveto
          370 hlineto
          11 -56 callgsubr
          8 -11 vhcurveto
          endchar
        </CharString>
        <CharString name="minus">
          -48 338 48 hstem
          15 429 vstem
          35 386 rmoveto
          -12 -8 -8 -11 hvcurveto
          -9 vlineto
          -11 8 -9 12 vhcurveto
          390 hlineto
          -45 callgsubr
          endchar
        </CharString>
        <CharString name="mu">
          -33 -2 48 hstem
          59 47 248 47 vstem
          78 500 -74 callsubr
          -691 15 callsubr
          253 vlineto
          -29 32 44 -15 47 hhcurveto
          98 74 59 106 hvcurveto
          317 vlineto
          64 callsubr
          -8 -12 hvcurveto
          -316 vlineto
          -80 -57 -38 -68 -43 -42 16 34 -21 vhcurveto
          6 -5 -6 4 -6 hhcurveto
          374 70 callsubr
        </CharString>
        <CharString name="multiply">
          -86 201 322 hstem
          50 321 vstem
          89 518 rmoveto
          -8 6 -11 0 -9 -7 -6 -6 rcurveline
          -7 -8 0 -11 7 -8 122 -122 rcurveline
          -121 -121 -8 -8 0 -11 7 -8 rlinecurve
          7 -7 7 -7 12 -1 9 8 rlinecurve
          121 121 121 -121 8 -7 11 0 8 6 rlinecurve
          7 7 7 8 0 11 -7 9 rlinecurve
          -121 121 121 121 7 8 0 12 -8 8 rlinecurve
          -6 6 -8 8 -11 0 -8 -8 rlinecurve
          -121 -121 rlineto
          endchar
        </CharString>
        <CharString name="n">
          -28 44 callsubr
          hstem
          59 53 callsubr
          47 vstem
          -62 callsubr
          endchar
        </CharString>
        <CharString name="nbspace">
          -7 endchar
        </CharString>
        <CharString name="nine">
          35 0 49 209 48 346 48 hstem
          69 48 300 48 vstem
          264 -13 callsubr
          -114 -81 -79 -106 hvcurveto
          -82 vlineto
          -111 91 -64 108 57 55 21 36 37 vhcurveto
          -126 vlineto
          -103 -67 -37 -86 -84 -62 41 81 vhcurveto
          10 -73 callgsubr
          -9 hlineto
          -1 callsubr
          -12 vlineto
          -110 80 -59 115 115 86 56 132 vhcurveto
          322 vlineto
          119 -95 71 -99 vhcurveto
          1 -48 rmoveto
          64 81 -47 -98 hvcurveto
          -133 vlineto
          -39 -44 -56 -29 -49 hhcurveto
          -76 -75 45 83 hvcurveto
          81 vlineto
          81 66 56 81 vhcurveto
          endchar
        </CharString>
        <CharString name="notequal">
          72 21 -21 274 48 76 48 253 -20 -42 callgsubr
          -75 377 -50 callsubr
        </CharString>
        <CharString name="ntilde">
          -28 44 callsubr
          56 57 callgsubr
          hstemhm
          59 48 -41 43 247 47 -37 46 hintmask 11111010
          -62 callsubr
          hintmask 11110101
          288 189 -101 callgsubr
        </CharString>
        <CharString name="numbersign">
          94 21 -21 219 49 184 49 199 -20 hstem
          32 543 vstem
          116 501 rmoveto
          -2 callsubr
          -11 8 -9 11 vhcurveto
          110 hlineto
          -70 -184 rlineto
          -105 hlineto
          -2 callsubr
          -11 8 -9 11 vhcurveto
          87 hlineto
          -74 -193 rlineto
          -13 -4 7 -13 15 hhcurveto
          10 hlineto
          7 9 69 callsubr
          130 hlineto
          -73 -193 rlineto
          -13 -4 5 -13 14 hhcurveto
          11 hlineto
          6 11 69 callsubr
          122 hlineto
          11 -38 callgsubr
          0 callsubr
          -103 hlineto
          70 184 rlineto
          97 hlineto
          12 7 6 callgsubr
          9 vlineto
          11 -7 9 -12 vhcurveto
          -78 hlineto
          66 173 rlineto
          13 5 -9 54 callgsubr
          -72 -186 rlineto
          -128 hlineto
          66 173 rlineto
          13 5 -10 54 callgsubr
          -71 -186 rlineto
          93 -233 rmoveto
          -129 hlineto
          70 184 rlineto
          129 hlineto
          endchar
        </CharString>
        <CharString name="o">
          -87 callgsubr
          endchar
        </CharString>
        <CharString name="oacute">
          -87 callgsubr
          70 277 -104 callgsubr
        </CharString>
        <CharString name="ocircumflex">
          -87 callgsubr
          8 297 -107 callgsubr
        </CharString>
        <CharString name="odieresis">
          21 callsubr
          61 46 callgsubr
          hstemhm
          70 47 1 -25 callgsubr
          -20 47 hintmask 1111101101000000
          244 502 rmoveto
          -99 callsubr
          hintmask 0011011110000000
          90 212 -105 callsubr
        </CharString>
        <CharString name="oe">
          255 -2 47 189 48 173 47 hstem
          60 47 251 46 251 47 cntrmask 00011100
          532 -82 callsubr
          -174 vlineto
          -103 callsubr
          vhcurveto
          -298 hmoveto
          -99 callsubr
          endchar
        </CharString>
        <CharString name="ogonek">
          -135 -164 38 hstem
          99 48 vstem
          208 43 rmoveto
          -8 8 -7 -1 -9 -7 rrcurveto
          -36 -28 -49 -39 -58 vvcurveto
          -39 25 -43 81 15 22 3 7 14 vhcurveto
          2 1 0 3 22 vvcurveto
          9 0 3 -3 vhcurveto
          -3 -15 -10 -31 hhcurveto
          -25 -34 10 43 24 17 33 49 45 hvcurveto
          4 3 -1 3 -8 8 rrcurveto
          endchar
        </CharString>
        <CharString name="ograve">
          -87 callgsubr
          -34 277 -102 callsubr
        </CharString>
        <CharString name="one">
          -124 -8 callsubr
          224 50 vstem
          246 -13 callsubr
          -17 1 -15 -6 -16 -13 -172 -140 rcurveline
          -12 -10 1 -6 6 66 callsubr
          rcurveline
          6 -8 7 -1 9 7 172 136 rcurveline
          -621 vlineto
          -14 -1 -6 11 vhcurveto
          29 hlineto
          12 -1 0 21 hvcurveto
          636 vlineto
          27 -9 15 -19 1 vhcurveto
          endchar
        </CharString>
        <CharString name="one.numr">
          -124 21 -21 hstem
          172 41 vstem
          186 445 -83 callsubr
          endchar
        </CharString>
        <CharString name="onehalf">
          -7 0 72 callgsubr
          152 41 465 40 vstem
          166 736 -83 callsubr
          479 2 -68 callsubr
          -67 -303 -86 callgsubr
        </CharString>
        <CharString name="onequarter">
          193 71 callgsubr
          hstem
          152 41 384 39 vstem
          166 729 -83 callsubr
          477 9 -68 callsubr
          -64 -294 52 callgsubr
          -44 callgsubr
          61 vlineto
          18 callsubr
          -12 callgsubr
          -216 vlineto
          endchar
        </CharString>
        <CharString name="onesuperior">
          -124 443 445 hstem
          190 41 vstem
          204 888 -83 callsubr
          endchar
        </CharString>
        <CharString name="ordfeminine">
          -3 394 41 -36 38 254 41 hstemhm
          130 41 151 41 hintmask 10111000
          247 56 callsubr
          -69 -48 -33 -75 hvcurveto
          -117 vlineto
          -73 46 -40 68 29 19 8 12 18 vhcurveto
          4 3 -2 3 -2 4 -9 23 rcurveline
          -2 4 -2 1 -4 -3 rrcurveto
          -8 -13 -14 -6 -19 hhcurveto
          -59 -17 37 45 hvcurveto
          97 vlineto
          46 27 31 49 47 28 -29 -46 vhcurveto
          hintmask 01111000
          -151 vlineto
          -26 4 -14 12 -12 vhcurveto
          -9 9 12 -5 17 hhcurveto
          8 10 1 3 7 hvcurveto
          5 2 3 2 3 vvcurveto
          25 vlineto
          6 -2 0 -5 -2 vhcurveto
          -5 -2 -8 -2 -9 2 rrcurveto
          -18 4 1 21 26 vvcurveto
          129 vlineto
          hintmask 10111000
          83 -49 32 -67 vhcurveto
          endchar
        </CharString>
        <CharString name="ordmasculine">
          -3 388 41 262 41 hstem
          135 40 152 43 vstem
          254 56 callsubr
          -69 -50 -38 -75 hvcurveto
          -119 vlineto
          -72 50 -40 69 67 49 40 72 vhcurveto
          119 vlineto
          73 -49 40 -67 vhcurveto
          -41 vmoveto
          57 16 -36 -46 hvcurveto
          -99 vlineto
          -45 -16 -36 -57 -57 -22 36 45 vhcurveto
          99 vlineto
          46 22 36 57 vhcurveto
          endchar
        </CharString>
        <CharString name="oslash">
          -24 -2 47 410 47 hstem
          72 25 callgsubr
          392 47 callgsubr
          -7 31 callsubr
          -310 -461 rlineto
          -12 -8 12 -14 10 callgsubr
          311 461 rlineto
          12 8 -8 14 -15 hhcurveto
          -159 2 rmoveto
          -99 callsubr
          endchar
        </CharString>
        <CharString name="otilde">
          21 callsubr
          56 57 callgsubr
          hstemhm
          70 47 -39 43 246 47 -36 46 hintmask 11111010
          244 502 rmoveto
          -99 callsubr
          hintmask 11110101
          143 233 -101 callgsubr
        </CharString>
        <CharString name="p">
          3 27 callsubr
          58 25 callgsubr
          230 61 callsubr
          -100 -72 -58 -107 hvcurveto
          -568 15 callsubr
          270 vlineto
          -22 26 43 -19 56 41 callgsubr
          vhcurveto
          -48 vmoveto
          50 callsubr
          -51 -48 27 20 -26 vhcurveto
          243 vlineto
          80 57 38 68 vhcurveto
          endchar
        </CharString>
        <CharString name="paragraph">
          338 47 268 47 hstem
          63 48 251 50 42 50 vstem
          254 -13 callsubr
          -111 -80 -65 -116 -98 69 -83 128 hvcurveto
          45 hlineto
          12 3 6 callgsubr
          7 vlineto
          12 -3 8 -12 vhcurveto
          -42 hlineto
          -84 -68 45 88 99 65 33 80 2 hvcurveto
          49 1 rlineto
          12 4 9 9 hvcurveto
          9 vlineto
          12 -4 8 -12 vhcurveto
          76 30 rmoveto
          -30 callsubr
          80 hmoveto
          -30 callsubr
          endchar
        </CharString>
        <CharString name="parenleft">
          -180 -1 48 594 49 hstem
          43 48 vstem
          293 690 rmoveto
          -99 -151 -41 -306 -308 153 -36 99 11 -56 callgsubr
          8 -11 -82 -122 37 259 258 121 40 81 4 callsubr
          vhcurveto
          9 45 callgsubr
          -11 vhcurveto
          endchar
        </CharString>
        <CharString name="parenright">
          -145 -1 48 594 49 hstem
          266 48 vstem
          64 690 rmoveto
          -2 callsubr
          -11 8 -9 11 83 119 -40 -258 -259 -121 -37 -83 -18 callsubr
          -11 vhcurveto
          -9 callgsubr
          11 100 152 36 308 306 -150 41 -100 vhcurveto
          endchar
        </CharString>
        <CharString name="percent">
          101 57 callsubr
          hstem
          67 callsubr
          vstem
          371 56 callsubr
          -10 -8 -6 -10 -2 hvcurveto
          -129 -713 rlineto
          -13 -2 9 -10 13 hhcurveto
          10 hlineto
          8 9 6 10 2 hvcurveto
          131 713 rlineto
          12 2 -6 11 -15 hhcurveto
          73 -421 -82 callgsubr
          -305 437 -82 callgsubr
          endchar
        </CharString>
        <CharString name="period">
          -307 -3 75 callsubr
          41 75 callgsubr
          97 111 -96 callsubr
        </CharString>
        <CharString name="periodcentered">
          -279 216 43 52 43 hstem
          45 43 52 43 vstem
          113 354 rmoveto
          -57 -11 -7 -52 hvcurveto
          -15 vlineto
          -57 11 -7 57 57 13 7 57 vhcurveto
          15 vlineto
          49 -13 10 -57 vhcurveto
          -43 vmoveto
          23 4 -4 -17 hvcurveto
          -10 vlineto
          -19 -4 -2 -23 -21 -4 2 19 7 callgsubr
          19 4 2 21 vhcurveto
          endchar
        </CharString>
        <CharString name="perthousand">
          330 57 callsubr
          hstemhm
          67 callsubr
          26 48 107 48 hintmask 1111111101000000
          371 56 callsubr
          -10 -8 -6 -10 -2 hvcurveto
          -129 -713 rlineto
          -13 -2 9 -10 13 hhcurveto
          10 hlineto
          8 9 6 10 2 hvcurveto
          131 713 rlineto
          12 2 -6 11 -15 hhcurveto
          73 -421 -82 callgsubr
          -305 437 -59 callgsubr
          hintmask 1100000011000000
          -44 callsubr
          hintmask 1111111101000000
          117 vlineto
          hintmask 1100000011000000
          31 17 18 36 vhcurveto
          534 -341 -82 callgsubr
          endchar
        </CharString>
        <CharString name="pi">
          0 42 441 47 hstem
          163 47 140 47 vstem
          369 438 -74 callsubr
          -300 vlineto
          -83 25 -35 80 10 7 0 2 5 vhcurveto
          6 3 2 6 6 vvcurveto
          11 vlineto
          5 -2 4 -4 2 vhcurveto
          -5 3 -10 -1 -15 1 rrcurveto
          -25 2 -27 9 64 vvcurveto
          301 -73 callgsubr
          -195 1 -74 callsubr
          -399 vlineto
          -12 8 -49 callsubr
          399 -73 callgsubr
          -127 91 rmoveto
          -12 -6 -10 -11 hvcurveto
          1 -16 4 -11 13 1 rrcurveto
          449 hlineto
          14 -1 6 10 17 vvcurveto
          14 -8 7 -12 vhcurveto
          endchar
        </CharString>
        <CharString name="plus">
          -28 318 48 hstem
          216 48 vstem
          45 -48 callsubr
          endchar
        </CharString>
        <CharString name="plusminus">
          -141 1 48 269 48 hstem
          156 48 vstem
          -15 -48 callsubr
          -172 -317 rmoveto
          -12 -8 -8 -11 hvcurveto
          -9 vlineto
          -11 8 -9 12 vhcurveto
          390 hlineto
          -45 callgsubr
          endchar
        </CharString>
        <CharString name="product">
          682 50 hstem
          104 50 310 50 vstem
          24 732 39 callsubr
          80 -754 hlineto
          -46 callsubr
          754 310 -754 vlineto
          -46 callsubr
          754 93 15 callgsubr
          endchar
        </CharString>
        <CharString name="q">
          9 27 callsubr
          48 48 36 callgsubr
          221 61 callsubr
          -99 -74 -56 -109 -35 callgsubr
          -106 74 -59 99 53 44 20 21 27 vhcurveto
          -270 vlineto
          -11 13 callgsubr
          8 22 callgsubr
          568 vlineto
          107 -72 58 -100 vhcurveto
          -48 vmoveto
          68 56 -38 -80 hvcurveto
          -243 vlineto
          -6 1 -7 -1 -4 -6 rrcurveto
          -25 -25 -35 -16 -47 hhcurveto
          -68 -57 39 80 hvcurveto
          171 vlineto
          81 57 37 68 vhcurveto
          endchar
        </CharString>
        <CharString name="question">
          -65 -3 23 callsubr
          527 48 hstemhm
          135 35 0 48 -4 35 88 48 hintmask 11101010
          207 686 rmoveto
          -67 -72 -28 -79 -28 hvcurveto
          -16 -4 8 -9 15 hhcurveto
          68 callgsubr
          54 23 46 18 52 hhcurveto
          89 41 -62 -63 -78 -55 -45 -66 -6 hvcurveto
          -33 -3 -13 -6 -32 vvcurveto
          -148 48 callgsubr
          143 vlineto
          -1 1 0 0 1 hhcurveto
          100 13 65 70 94 vvcurveto
          76 -47 96 -131 vhcurveto
          hintmask 11110110
          -16 -575 -96 callsubr
        </CharString>
        <CharString name="questiondown">
          -65 -177 48 527 23 callsubr
          hstemhm
          39 48 88 35 -4 48 0 35 hintmask 11110100
          217 -177 rmoveto
          67 72 28 79 28 hvcurveto
          16 4 -8 9 -15 hhcurveto
          -9 hlineto
          -8 -7 -6 -6 -3 hvcurveto
          -54 -23 -46 -18 -52 hhcurveto
          -89 -41 62 63 78 55 45 66 6 hvcurveto
          33 3 13 6 32 vvcurveto
          148 -23 callgsubr
          8 -12 vhcurveto
          -9 -19 callsubr
          -143 vlineto
          1 -1 0 0 -1 hhcurveto
          -100 -13 -65 -70 -94 vvcurveto
          -76 47 -96 131 vhcurveto
          hintmask 11111010
          16 575 rmoveto
          47 9 6 43 hvcurveto
          13 vlineto
          46 -9 6 -47 -47 -11 -6 -46 vhcurveto
          -13 vlineto
          -41 11 -8 47 vhcurveto
          35 vmoveto
          -19 -4 4 13 hvcurveto
          -25 callsubr
          19 17 4 -2 -15 vhcurveto
          -10 vlineto
          -15 -4 -2 -17 vhcurveto
          endchar
        </CharString>
        <CharString name="quotedbl">
          -314 552 178 hstemhm
          35 49 29 49 hintmask 11000000
          hintmask 11100000
          132 730 12 callgsubr
          -140 -38 callsubr
          11 41 callsubr
          hintmask 11000000
          -89 hmoveto
          -10 callgsubr
          -140 -38 callsubr
          10 56 callgsubr
          hvcurveto
          140 -23 callgsubr
          8 -12 vhcurveto
          endchar
        </CharString>
        <CharString name="quotedblbase">
          -288 -136 275 hstem
          10 197 vstem
          178 -74 callgsubr
          -105 hmoveto
          -81 callgsubr
          endchar
        </CharString>
        <CharString name="quotedblleft">
          -507 64 callgsubr
          139 40 vstem
          333 732 -85 callgsubr
          -149 182 -85 callgsubr
          endchar
        </CharString>
        <CharString name="quotedblright">
          -507 68 callsubr
          132 40 vstem
          244 732 -85 callsubr
          -212 116 -85 callsubr
          endchar
        </CharString>
        <CharString name="quoteleft">
          -271 64 callgsubr
          vstem
          154 732 -85 callgsubr
          endchar
        </CharString>
        <CharString name="quoteright">
          -271 68 callsubr
          vstem
          72 732 -85 callsubr
          endchar
        </CharString>
        <CharString name="quotesinglbase">
          -441 -29 callgsubr
        </CharString>
        <CharString name="quotesingle">
          -367 552 178 hstem
          44 49 vstem
          64 73 callsubr
          -9 -16 callsubr
          -140 vlineto
          -11 13 callgsubr
          10 41 callsubr
          endchar
        </CharString>
        <CharString name="r">
          -216 44 callsubr
          hstem
          68 47 vstem
          240 61 callsubr
          -103 -69 -52 -113 hvcurveto
          -317 28 callsubr
          7 hlineto
          11 9 58 callsubr
          84 54 34 71 4 callsubr
          vhcurveto
          7 70 callsubr
        </CharString>
        <CharString name="radical">
          -86 917 hstem
          -24 703 vstem
          648 830 rmoveto
          -10 3 -2 -4 -5 -12 -344 -796 rcurveline
          -137 323 -3 7 -1 -1 -9 -5 rlinecurve
          -159 -93 -5 -4 2 0 8 -17 rlinecurve
          10 -18 2 1 9 4 111 63 rcurveline
          153 -362 rlineto
          -4 2 0 -1 9 46 callsubr
          4 3 0 5 2 hvcurveto
          375 880 3 7 4 9 -8 4 rlinecurve
          -7 4 -10 4 -9 3 rrcurveto
          endchar
        </CharString>
        <CharString name="registered">
          0 48 312 38 174 43 93 48 hstem
          20 48 105 43 208 44 84 -26 callgsubr
          -48 vmoveto
          -14 callsubr
          -104 -93 rmoveto
          -32 -3 -2 -33 hvcurveto
          -436 vlineto
          -10 8 -5 11 vhcurveto
          5 76 callgsubr
          5 10 hvcurveto
          428 102 vlineto
          33 73 -11 -81 -59 -39 -23 -70 hvcurveto
          -31 hlineto
          -17 -9 -7 -14 -11 7 -9 6 -10 hvcurveto
          139 -211 rlineto
          -5 3 9 -3 7 hhcurveto
          13 hlineto
          10 6 2 9 6 -7 9 -6 10 hvcurveto
          -129 196 rlineto
          10 hlineto
          139 3 102 20 92 -64 41 -85 hvcurveto
          endchar
        </CharString>
        <CharString name="ring">
          501 43 146 43 hstem
          185 42 108 42 vstem
          283 733 -64 callgsubr
        </CharString>
        <CharString name="s">
          -68 callgsubr
          endchar
        </CharString>
        <CharString name="scaron">
          -68 callgsubr
          128 191 -87 callsubr
        </CharString>
        <CharString name="section">
          -33 -168 46 805 49 hstemhm
          40 48 -41 49 -21 52 238 47 -25 47 hintmask 11010010
          251 56 callsubr
          hintmask 11001010
          -124 -52 -73 -68 -56 23 -37 65 -44 hvcurveto
          hintmask 11010100
          -76 -23 -40 -65 -62 vvcurveto
          -94 81 -54 87 -40 vhcurveto
          83 -38 67 -31 -69 vvcurveto
          -67 -69 -33 -62 vhcurveto
          hintmask 11100100
          -81 -65 49 70 16 -9 7 -11 hvcurveto
          -9 -1 callgsubr
          -113 94 -55 100 94 84 54 94 56 -22 38 -82 46 hvcurveto
          hintmask 11001010
          78 20 48 59 70 vvcurveto
          93 -71 35 -89 48 vhcurveto
          -75 40 -72 36 69 vvcurveto
          54 51 39 73 81 54 -37 -80 -16 9 -7 11 vhcurveto
          9 -7 callsubr
          hintmask 11010010
          113 -73 56 -110 vhcurveto
          -155 -425 rmoveto
          61 52 51 68 3 vhcurveto
          39 -21 64 -34 67 -21 1 -76 rlinecurve
          1 -67 -60 -46 -85 -4 rrcurveto
          -65 30 -82 39 85 vvcurveto
          endchar
        </CharString>
        <CharString name="semicolon">
          -336 267 75 callsubr
          45 75 callgsubr
          78 -74 callgsubr
          10 242 -96 callsubr
        </CharString>
        <CharString name="seven">
          -53 71 callsubr
          hstem
          36 391 vstem
          56 700 rmoveto
          -11 -9 -16 callsubr
          -11 vlineto
          -11 13 callgsubr
          316 hlineto
          -297 -623 rlineto
          -1 -3 -1 -4 -3 vvcurveto
          -11 7 -7 13 37 callsubr
          7 7 3 8 4 hvcurveto
          293 620 5 10 5 15 1 12 rlinecurve
          28 -22 4 -14 vhcurveto
          endchar
        </CharString>
        <CharString name="six">
          77 -3 49 345 48 213 48 hstem
          87 48 300 48 vstem
          287 -13 callsubr
          -114 -86 -68 -133 hvcurveto
          -312 vlineto
          -118 95 -72 97 vhcurveto
          8 hlineto
          115 81 80 105 hvcurveto
          79 vlineto
          111 -83 67 -109 -57 -61 -25 -36 -38 vhcurveto
          120 vlineto
          105 67 49 85 73 55 -32 -58 15 vhcurveto
          -8 2 8 -7 9 hhcurveto
          11 1 12 1 8 10 -2 12 rlinecurve
          83 -20 -72 46 -99 hhcurveto
          4 -309 rmoveto
          76 68 -47 -84 hvcurveto
          -78 vlineto
          -80 -67 -56 -81 76 callsubr
          -62 -81 47 97 hvcurveto
          130 vlineto
          32 33 55 39 68 hhcurveto
          endchar
        </CharString>
        <CharString name="slash">
          -204 21 -21 699 -20 hstem
          -10 310 vstem
          270 699 -50 callsubr
        </CharString>
        <CharString name="softhyphen">
          -20 callsubr
        </CharString>
        <CharString name="space">
          -7 endchar
        </CharString>
        <CharString name="sterling">
          1 50 280 48 272 49 hstemhm
          28 85 2 51 hintmask 11101000
          296 -13 callsubr
          -136 2 -45 -89 -101 vvcurveto
          1 -467 rlineto
          -34 8 -10 36 vhcurveto
          316 -1 10 1 9 9 1 10 rlinecurve
          10 vlineto
          12 -9 0 callsubr
          -310 -1 rlineto
          457 vlineto
          70 27 72 92 2 vhcurveto
          37 1 29 -11 27 -13 25 -12 19 -17 8 13 13 21 rcurveline
          8 13 -10 9 -28 14 -24 12 -31 18 -62 1 rrcurveto
          -249 -321 rmoveto
          -2 callsubr
          -11 8 -8 11 vhcurveto
          hintmask 11110000
          46 22 callgsubr
          9 -27 callgsubr
          105 hmoveto
          -11 callsubr
          -9 vlineto
          -11 13 callgsubr
          197 47 callsubr
          endchar
        </CharString>
        <CharString name="summation">
          -7 -49 49 678 49 hstem
          8 484 vstem
          63 650 rmoveto
          -5 -5 -2 -4 -4 hvcurveto
          -7 -7 72 callsubr
          -5 vvcurveto
          -5 2 -5 4 -4 vhcurveto
          279 -271 -279 -269 72 callsubr
          -5 vvcurveto
          -5 2 -5 4 -4 vhcurveto
          7 -7 rlineto
          -4 4 5 -2 5 hhcurveto
          5 5 2 4 4 hvcurveto
          300 290 rlineto
          4 4 2 5 4 vvcurveto
          5 -2 5 -3 4 vhcurveto
          -301 293 rlineto
          4 -4 -5 2 -5 hhcurveto
          -35 -650 -57 callsubr
          -444 727 -57 callsubr
          endchar
        </CharString>
        <CharString name="t">
          -171 0 47 407 46 hstemhm
          16 64 11 48 11 113 hintmask 11010000
          113 63 callsubr
          -3 -558 rlineto
          -96 2 57 -57 88 hhcurveto
          16 29 9 callsubr
          -25 hlineto
          -59 -40 38 69 -2 hvcurveto
          3 557 rlineto
          11 -67 callsubr
          -85 -230 -48 callgsubr
          -6 -78 callgsubr
          hintmask 11111000
          24 3 callsubr
          6 -70 callgsubr
          110 hmoveto
          -11 callsubr
          -6 vlineto
          -11 9 23 callgsubr
          74 -7 callsubr
          6 45 callgsubr
          -11 vhcurveto
          endchar
        </CharString>
        <CharString name="thorn">
          27 callsubr
          58 25 callgsubr
          80 63 callsubr
          -2 -360 rlineto
          -14 vlineto
          -568 15 callsubr
          484 vlineto
          94 vlineto
          72 5 55 35 65 hhcurveto
          50 callsubr
          -44 -38 14 15 -25 vhcurveto
          -52 vlineto
          -15 25 35 -10 47 41 callgsubr
          -51 -43 -15 -28 -30 vhcurveto
          1 252 rlineto
          11 -24 callsubr
        </CharString>
        <CharString name="three">
          28 0 49 292 48 263 48 hstemhm
          395 48 -36 50 hintmask 11101000
          hintmask 11110000
          250 -13 callsubr
          -89 -69 -54 -70 -12 hvcurveto
          -13 -2 1 -4 7 hhcurveto
          33 hlineto
          5 2 0 7 1 hvcurveto
          63 12 59 23 52 hhcurveto
          98 46 -71 -62 1 hvcurveto
          -82 1 -59 -48 -106 hhcurveto
          -56 hlineto
          -16 2 -2 -21 -23 -3 -2 16 hvcurveto
          59 hlineto
          hintmask 11101000
          124 50 -71 -77 -105 -71 -39 -82 -80 -53 40 76 -20 hvcurveto
          12 -3 -1 -1 -5 hhcurveto
          -30 -2 rlineto
          -11 -1 -2 -18 4 hvcurveto
          -91 20 63 -63 117 hhcurveto
          89 114 51 143 70 -29 73 -88 28 hvcurveto
          hintmask 11110000
          73 28 31 61 -1 65 rrcurveto
          90 -1 -58 91 -134 hhcurveto
          endchar
        </CharString>
        <CharString name="three.numr">
          289 43 callsubr
          360 36 -26 36 hintmask 11101000
          hintmask 11110000
          278 732 -72 callsubr
        </CharString>
        <CharString name="threequarters">
          193 71 callgsubr
          102 43 callsubr
          220 36 -26 36 306 39 hintmask 11111011
          138 732 -66 callsubr
          -59 callsubr
          hintmask 11111101
          14 callsubr
          516 6 -68 callsubr
          -80 -294 52 callgsubr
          hintmask 11111011
          -44 callgsubr
          vlineto
          hintmask 11111101
          61 hlineto
          18 callsubr
          hintmask 11111011
          -12 callgsubr
          hintmask 11111101
          -216 vlineto
          endchar
        </CharString>
        <CharString name="threesuperior">
          28 444 43 callsubr
          340 36 -26 36 hintmask 11101000
          hintmask 11110000
          258 887 -72 callsubr
        </CharString>
        <CharString name="tilde">
          558 57 callgsubr
          hstem
          106 73 callgsubr
          vstem
          415 688 -101 callgsubr
        </CharString>
        <CharString name="trademark">
          643 71 callsubr
          3 -20 hstemhm
          221 50 274 49 435 49 hintmask 11011100
          -40 callgsubr
          hintmask 10111100
          569 3 -61 callsubr
        </CharString>
        <CharString name="two">
          -7 0 48 604 48 hstem
          377 49 vstem
          245 -13 callsubr
          -81 -71 -45 -80 -27 hvcurveto
          -1 -2 0 -3 -2 vvcurveto
          -10 -45 callsubr
          68 callgsubr
          61 25 46 29 62 hhcurveto
          63 69 -32 -91 -77 -73 -84 -66 -85 hvcurveto
          -27 -32 -24 -29 -22 -28 -21 -24 rlinecurve
          -42 -48 rlineto
          -24 -30 -19 -26 -17 vvcurveto
          -47 30 -2 24 vhcurveto
          308 hlineto
          -28 callsubr
          8 -12 vhcurveto
          -307 hlineto
          -2 -2 0 -1 -2 hvcurveto
          6 6 24 32 25 31 30 36 rcurveline
          26 30 29 35 28 35 rrcurveto
          70 89 80 102 91 vvcurveto
          97 -61 69 -120 vhcurveto
          endchar
        </CharString>
        <CharString name="two.dnom">
          -7 0 72 callgsubr
          321 40 vstem
          244 435 -86 callgsubr
        </CharString>
        <CharString name="twosuperior">
          -7 443 72 callgsubr
          321 40 vstem
          244 878 -86 callgsubr
        </CharString>
        <CharString name="u">
          -96 callgsubr
          endchar
        </CharString>
        <CharString name="uacute">
          -96 callgsubr
          -95 -78 callsubr
        </CharString>
        <CharString name="ucircumflex">
          -96 callgsubr
          -157 252 -107 callgsubr
        </CharString>
        <CharString name="udieresis">
          -9 0 47 455 -20 81 46 callgsubr
          hstemhm
          71 47 -13 -25 callgsubr
          -7 48 hintmask 1111101101000000
          -102 callgsubr
          hintmask 0011011110000000
          -75 167 -105 callsubr
        </CharString>
        <CharString name="ugrave">
          -96 callgsubr
          -199 232 -102 callsubr
        </CharString>
        <CharString name="underscore">
          -48 -9 48 hstem
          35 383 vstem
          55 39 rmoveto
          -11 -9 -16 callsubr
          -10 vlineto
          -11 13 callgsubr
          343 hlineto
          42 callgsubr
        </CharString>
        <CharString name="v">
          -19 20 -21 hstem
          31 407 vstem
          409 47 callgsubr
          -8 -8 -7 -6 -3 hvcurveto
          -155 -427 -156 427 rlineto
          6 -3 -10 7 -6 hhcurveto
          -9 hlineto
          -15 -8 -13 -13 4 hvcurveto
          165 -448 rlineto
          -15 5 14 -12 19 hhcurveto
          18 12 11 17 7 hvcurveto
          165 447 rlineto
          13 4 -8 13 67 callgsubr
        </CharString>
        <CharString name="w">
          78 -2 64 -43 -21 hstemhm
          4 554 hintmask 01100000
          530 47 callgsubr
          -7 -8 -7 -8 -2 hvcurveto
          hintmask 10100000
          -103 -423 -33 107 -32 104 -31 107 rlinecurve
          12 -4 -9 15 -20 hhcurveto
          -18 -10 -14 -14 -3 hvcurveto
          -98 -317 -102 423 rlineto
          9 -2 -9 6 -8 hhcurveto
          -9 hlineto
          -13 -7 -11 -13 2 hvcurveto
          110 -453 rlineto
          -16 5 12 -9 21 hhcurveto
          19 15 16 14 5 hvcurveto
          29 97 32 100 29 97 90 -294 rcurveline
          -14 5 15 -16 20 hhcurveto
          20 12 9 16 5 hvcurveto
          37 148 36 157 37 148 rrcurveto
          11 2 -8 13 -13 hhcurveto
          endchar
        </CharString>
        <CharString name="x">
          -65 21 -21 hstem
          29 358 vstem
          351 47 callgsubr
          -5 -8 -5 -3 -3 hvcurveto
          -126 -196 -127 196 rlineto
          3 -3 -8 5 -6 hhcurveto
          -10 hlineto
          -15 -7 -18 -13 6 hvcurveto
          134 -207 rlineto
          1 vlineto
          1 -3 3 -4 3 -4 -2 -3 -3 -3 -1 -3 rrcurveto
          1 vlineto
          -142 -213 rlineto
          -14 -8 8 -17 17 hhcurveto
          10 hlineto
          6 8 5 3 3 hvcurveto
          44 68 45 65 44 68 132 -201 rcurveline
          -3 3 8 -5 6 hhcurveto
          10 hlineto
          16 7 18 13 -6 hvcurveto
          -142 212 rlineto
          -1 vlineto
          -6 10 3 3 2 4 2 3 rlinecurve
          -1 vlineto
          43 68 48 72 43 68 rrcurveto
          13 6 -7 18 67 callgsubr
        </CharString>
        <CharString name="y">
          -79 callsubr
          endchar
        </CharString>
        <CharString name="yacute">
          -79 callsubr
          221 230 -104 callgsubr
        </CharString>
        <CharString name="ydieresis">
          27 callgsubr
          81 46 callgsubr
          hstemhm
          68 47 -38 47 -4 -25 callgsubr
          -25 47 hintmask 1111110011010000
          hintmask 0001100111100000
          -4 callsubr
          -66 74 callgsubr
          vhcurveto
          -39 callsubr
          -305 2 -100 callsubr
          241 165 -76 callsubr
          vhcurveto
          hintmask 1000001000010000
          43 10 6 41 hvcurveto
          12 vlineto
          -93 callsubr
          hintmask 0110010000000000
          -91 callsubr
          -99 callgsubr
        </CharString>
        <CharString name="yen">
          -71 21 -21 231 49 29 48 hstemhm
          187 48 hintmask 11010000
          hintmask 11110000
          43 357 48 callsubr
          144 hlineto
          hintmask 11010000
          -29 -144 vlineto
          -2 callsubr
          -11 8 -9 11 vhcurveto
          144 -211 hlineto
          31 callgsubr
          9 -20 callgsubr
          12 hvcurveto
          211 141 vlineto
          12 -38 callgsubr
          9 -12 vhcurveto
          -141 hlineto
          hintmask 11110000
          29 141 vlineto
          12 -38 callgsubr
          8 -12 vhcurveto
          -129 hlineto
          166 298 rlineto
          13 7 -8 16 -16 hhcurveto
          -11 hlineto
          -6 -9 -4 -6 -3 hvcurveto
          -155 -283 -167 284 rlineto
          5 -3 -9 4 -5 hhcurveto
          -11 hlineto
          -17 -7 -16 -14 7 hvcurveto
          176 -297 rlineto
          endchar
        </CharString>
        <CharString name="z">
          -57 callgsubr
          endchar
        </CharString>
        <CharString name="zcaron">
          -57 callgsubr
          16 193 -87 callsubr
        </CharString>
        <CharString name="zero">
          15 -2 48 606 48 hstem
          50 50 302 49 vstem
          245 -13 callsubr
          -98 -97 -50 -140 hvcurveto
          -309 vlineto
          -140 85 -61 113 -2 vhcurveto
          6 hlineto
          113 2 84 62 139 vvcurveto
          309 vlineto
          140 -96 50 -98 vhcurveto
          2 -48 rmoveto
          64 79 -27 -118 hvcurveto
          -305 vlineto
          -118 -63 -38 -82 vhcurveto
          -12 hlineto
          -82 -63 38 118 hvcurveto
          305 vlineto
          118 79 27 64 vhcurveto
          endchar
        </CharString>
      <CharString index="0">
        rmoveto
        -20 -12 -11 -8 -6 hvcurveto
        -116 -152 rlineto
        -3 -5 -2 -5 -4 vvcurveto
        -10 -45 callsubr
        13 40 callsubr
        3 3 2 hvcurveto
        109 144 2 3 2 -2 113 -145 rlineto
        -3 2 4 -3 9 hhcurveto
        13 -6 callgsubr
        10 4 -1 5 -4 5 hvcurveto
        -121 152 rlineto
        8 -6 -11 11 -19 hhcurveto
        endchar
      </CharString>
      <CharString index="1">
        247 -82 callsubr
        -172 vlineto
        -98 callgsubr
        -219 vlineto
        -73 15 -89 callsubr
        220 -58 callsubr
        return
      </CharString>
      <CharString index="2">
        -90 callsubr
        -35 -92 callgsubr
        return
      </CharString>
      <CharString index="3">
        rmoveto
        -21 2 -5 -10 -8 -10 -107 -136 rcurveline
        -6 -8 0 -7 4 -6 rrcurveto
        -6 4 -18 callgsubr
        15 7 7 10 8 hvcurveto
        107 133 12 15 -4 19 -24 2 rlinecurve
        endchar
      </CharString>
      <CharString index="4">
        rmoveto
        -105 callgsubr
        return
      </CharString>
      <CharString index="5">
        90 502 -100 callsubr
        288 -2 -74 callsubr
        -362 vlineto
        -73 16 -89 callsubr
        363 -15 callsubr
        return
      </CharString>
      <CharString index="6">
        rmoveto
        -7 -2 -4 -8 hvcurveto
        -60 2 -24 -14 -26 hhcurveto
        -12 -16 9 9 -11 hvcurveto
        38 -47 -28 28 -43 hhcurveto
        -58 -37 -38 -70 -12 2 -8 11 hvcurveto
        15 hlineto
        14 1 7 9 51 26 18 27 10 10 -3 -6 10 hvcurveto
        -28 43 31 -48 54 hhcurveto
        57 35 -4 callgsubr
      </CharString>
      <CharString index="7">
        49 vstem
        -104 callsubr
        return
      </CharString>
      <CharString index="8">
        -52 callsubr
        166 hmoveto
        -90 callgsubr
        endchar
      </CharString>
      <CharString index="9">
        -106 59 -59 99 58 45 26 39 26 vhcurveto
        2 3 3 10 -2 8 rrcurveto
        6 -2 -3 9 -14 hhcurveto
        -7 -7 -4 -5 -4 hvcurveto
        -29 -23 -39 -16 -32 hhcurveto
        -69 -43 39 80 hvcurveto
        171 vlineto
        80 58 -13 callgsubr
        return
      </CharString>
      <CharString index="10">
        -93 callsubr
        -10 vlineto
        -13 -3 -2 -18 -15 -3 2 13 vhcurveto
        10 vlineto
        return
      </CharString>
      <CharString index="11">
        -9 0 47 455 -20 hstem
        71 47 36 callgsubr
        -102 callgsubr
        return
      </CharString>
      <CharString index="12">
        11 callgsubr
        hstem
        50 49 389 -100 callgsubr
        return
      </CharString>
      <CharString index="13">
        -17 -2 48 188 48 172 48 hstem
        70 48 249 47 vstem
        244 502 rmoveto
        -100 -74 -56 -109 hvcurveto
        -174 vlineto
        -103 callsubr
        vhcurveto
        return
      </CharString>
      <CharString index="14">
        50 vstem
        480 700 rmoveto
        10 callsubr
        -167 -119 -34 -61 -2 76 callsubr
        -63 2 -119 33 168 vvcurveto
        429 -54 callsubr
        -429 vlineto
        -204 148 -48 82 37 callsubr
        80 149 48 204 hvcurveto
        429 -27 callgsubr
        return
      </CharString>
      <CharString index="15">
        vmoveto
        19 4 -4 -13 hvcurveto
        -10 vlineto
        -15 -4 -2 -19 -17 -4 2 15 vhcurveto
        -25 callsubr
        17 vhcurveto
        return
      </CharString>
      <CharString index="16">
        -230 646 rlineto
        14 -5 -11 14 -22 hhcurveto
        -87 -393 rmoveto
        -11 28 callgsubr
        -12 -21 callsubr
        173 -60 callgsubr
        12 -9 8 -11 vhcurveto
        return
      </CharString>
      <CharString index="17">
        -88 callsubr
        -52 callsubr
        return
      </CharString>
      <CharString index="18">
        55 -1 49 652 -20 hstem
        39 50 371 -93 callgsubr
        return
      </CharString>
      <CharString index="19">
        -32 callsubr
        -21 4 -19 35 vhcurveto
        350 -55 callsubr
        -339 602 339 -53 callgsubr
        return
      </CharString>
      <CharString index="20">
        21 callsubr
        hstem
        70 25 callgsubr
        244 502 rmoveto
        -99 callsubr
        return
      </CharString>
      <CharString index="21">
        rmoveto
        -50 -46 -28 -50 -17 hvcurveto
        -1 -1 -2 -11 -4 vvcurveto
        -6 5 -3 10 vhcurveto
        7 hlineto
        5 6 3 4 1 hvcurveto
        48 15 29 12 38 hhcurveto
        39 39 -15 -56 -1 hvcurveto
        -1 -35 -29 -50 -36 -47 -36 -48 -41 -45 -23 -27 rrcurveto
        -25 -29 -11 -13 -11 vvcurveto
        -27 28 4 15 vhcurveto
        191 hlineto
        8 5 5 7 hvcurveto
        14 vlineto
        7 -5 5 -8 vhcurveto
        -179 hlineto
        48 57 17 20 23 26 23 30 rlinecurve
        39 50 37 59 50 vvcurveto
        60 -42 45 -75 vhcurveto
        endchar
      </CharString>
      <CharString index="22">
        rmoveto
        -8 -1 -6 -8 -3 hvcurveto
        -100 -229 rlineto
        -5 -13 -2 -8 -6 vvcurveto
        -7 2 -4 2 -4 vhcurveto
        -3 2 6 -10 15 hhcurveto
        102 hlineto
        21 6 7 25 hvcurveto
        93 vlineto
        20 -8 9 -21 vhcurveto
        -33 hlineto
        -1 hlineto
        58 130 4 8 -2 5 -8 1 rlinecurve
        -56 -182 rmoveto
        14 hlineto
        12 1 0 -7 hvcurveto
        -53 vlineto
        -14 1 -2 -10 vhcurveto
        -52 hlineto
        -6 -2 2 3 2 1 3 1 3 hvcurveto
        30 68 rlineto
        -3 3 -2 7 vhcurveto
        return
      </CharString>
      <CharString index="23">
        -279 -312 -48 callgsubr
        -9 callgsubr
        12 vhcurveto
        214 hlineto
        -47 callsubr
        return
      </CharString>
      <CharString index="24">
        167 -12 callsubr
        -101 callsubr
        return
      </CharString>
      <CharString index="25">
        -59 callgsubr
        -44 callsubr
        117 vlineto
        31 17 18 36 vhcurveto
        return
      </CharString>
      <CharString index="26">
        -13 -4 -7 -6 -2 hvcurveto
        -57 -243 rlineto
        -11 -2 6 -8 13 46 callsubr
        10 7 5 8 2 hvcurveto
        8 33 39 164 10 46 rrcurveto
        12 2 -6 7 -12 hhcurveto
        return
      </CharString>
      <CharString index="27">
        47 11 6 46 vhcurveto
        13 vlineto
        41 -11 8 -47 vhcurveto
        return
      </CharString>
      <CharString index="28">
        50 -1 49 604 50 hstem
        85 50 324 49 vstem
        283 702 rmoveto
        -127 -71 -77 -88 -81 42 -52 95 -42 hvcurveto
        25 -11 66 -26 26 -12 rrcurveto
        67 -32 53 -28 -77 vvcurveto
        -69 -58 -60 -114 1 vhcurveto
        -64 1 -115 29 -7 126 rrcurveto
        11 -1 -8 8 -11 hhcurveto
        -9 hlineto
        -12 -8 -9 -12 hvcurveto
        -153 5 138 -50 92 hhcurveto
        148 73 82 95 91 -41 41 -108 50 hvcurveto
        -24 11 -55 21 -24 11 rrcurveto
        -81 38 -40 31 66 vvcurveto
        64 53 51 95 1 vhcurveto
        82 1 83 -36 5 -110 rrcurveto
        -10 1 9 -9 10 hhcurveto
        10 -39 callgsubr
        10 11 hvcurveto
        135 -6 -101 58 -113 hhcurveto
        return
      </CharString>
      <CharString index="29">
        -31 callsubr
        12 vhcurveto
        return
      </CharString>
      <CharString index="30">
        -339 33 callgsubr
        hstem
        60 48 vstem
        -76 callgsubr
        return
      </CharString>
      <CharString index="31">
        80 501 rmoveto
        -11 -9 -8 -12 hvcurveto
        -461 -54 callgsubr
        461 -73 callgsubr
        return
      </CharString>
      <CharString index="32">
        43 10 6 41 vhcurveto
        12 vlineto
        return
      </CharString>
      <CharString index="33">
        139 rmoveto
        -81 callgsubr
        return
      </CharString>
      <CharString index="34">
        vlineto
        12 -53 callsubr
        return
      </CharString>
      <CharString index="35">
        11 -8 9 -12 vhcurveto
        return
      </CharString>
      <CharString index="36">
        -7 3 10 -6 6 hhcurveto
        12 -6 callgsubr
        12 2 0 2 -1 3 hvcurveto
        return
      </CharString>
      <CharString index="37">
        vlineto
        -72 callgsubr
        return
      </CharString>
      <CharString index="38">
        rmoveto
        -23 -69 -15 -44 rlineto
        -1 vlineto
        2 6 35 1 5 hhcurveto
        22 29 -16 -33 hvcurveto
        -28 vlineto
        -34 -26 -15 -27 -14 -35 7 23 -16 vhcurveto
        -23 -38 rlineto
        -19 16 38 -16 34 hhcurveto
        51 44 30 55 hvcurveto
        42 vlineto
        52 -34 29 -49 4 vhcurveto
        24 67 rlineto
        endchar
      </CharString>
      <CharString index="39">
        -52 -3 48 409 48 hstemhm
        57 47 -29 47 218 47 -39 47 hintmask 11010100
        hintmask 11011000
        227 61 callsubr
        -105 -47 -63 -70 -71 34 -49 108 -23 hvcurveto
        hintmask 11100100
        81 -17 50 -14 -62 vvcurveto
        -41 -31 -47 -84 -72 -57 26 83 64 callsubr
        -9 -12 -107 75 -49 101 104 58 63 75 84 -60 32 -102 20 hvcurveto
        hintmask 11011000
        -80 16 -31 28 53 vvcurveto
        44 31 42 74 72 41 -33 -68 -9 -6 callsubr
        61 callgsubr
        9 10 98 -57 50 -103 hvcurveto
        return
      </CharString>
      <CharString index="40">
        -69 -57 38 80 hvcurveto
        172 vlineto
        80 57 -27 callsubr
        return
      </CharString>
      <CharString index="41">
        48 hstem
        70 53 callsubr
        47 vstem
        26 callgsubr
        return
      </CharString>
      <CharString index="42">
        -28 callgsubr
        76 167 30 222 vhcurveto
        return
      </CharString>
      <CharString index="43">
        rmoveto
        -61 -37 -29 -56 hvcurveto
        -62 vlineto
        -55 37 -30 61 59 35 30 55 vhcurveto
        62 vlineto
        55 -35 30 -59 vhcurveto
        -43 vmoveto
        27 25 -16 -33 hvcurveto
        -48 vlineto
        -33 -25 -16 -27 -30 -26 16 33 vhcurveto
        48 vlineto
        33 26 16 30 vhcurveto
        endchar
      </CharString>
      <CharString index="44">
        -39 callgsubr
        6 callgsubr
        return
      </CharString>
      <CharString index="45">
        rmoveto
        -8 -1 -6 -11 -56 -33 -13 -33 hvcurveto
        -60 -68 84 -79 hhcurveto
        -58 -47 -40 -70 -12 2 -6 11 hvcurveto
        15 hlineto
        14 1 9 9 51 36 16 27 hvcurveto
        55 74 -85 79 hhcurveto
        65 45 -26 callsubr
        return
      </CharString>
      <CharString index="46">
        6 10 6 7 3 hvcurveto
        219 621 218 -621 rlineto
        return
      </CharString>
      <CharString index="47">
        -70 callsubr
        9 vlineto
        return
      </CharString>
      <CharString index="48">
        rmoveto
        -66 -35 -31 -72 hvcurveto
        -105 vlineto
        -68 35 -35 66 67 35 35 68 vhcurveto
        105 vlineto
        72 -35 31 -67 vhcurveto
        return
      </CharString>
      <CharString index="49">
        -72 callgsubr
        -8 -1 callgsubr
        return
      </CharString>
      <CharString index="50">
        -51 0 47 406 47 hstem
        54 330 vstem
        74 500 rmoveto
        -11 -8 58 callgsubr
        246 hlineto
        -249 -379 rlineto
        -7 -10 -10 -17 -12 vvcurveto
        -19 13 -16 24 vhcurveto
        274 -20 callgsubr
        12 hvcurveto
        8 vlineto
        11 -67 callsubr
        -255 hlineto
        252 380 rlineto
        6 8 11 18 12 vvcurveto
        21 -12 14 -28 vhcurveto
        return
      </CharString>
      <CharString index="51">
        8 8 12 -56 callsubr
        return
      </CharString>
      <CharString index="52">
        -8 -35 callsubr
        return
      </CharString>
      <CharString index="53">
        vlineto
        -12 9 -49 callsubr
        return
      </CharString>
      <CharString index="54">
        -60 callgsubr
        11 -9 9 -11 vhcurveto
        return
      </CharString>
      <CharString index="55">
        rmoveto
        -18 callsubr
        return
      </CharString>
      <CharString index="56">
        38 -10 7 -43 vhcurveto
        return
      </CharString>
      <CharString index="57">
        56 callsubr
        -13 -5 -5 -14 hvcurveto
        -252 vlineto
        19 -24 -55 20 -45 hhcurveto
        -99 -74 -57 -106 -35 callgsubr
        -109 74 -56 99 100 72 58 107 vhcurveto
        550 vlineto
        14 -5 5 -13 vhcurveto
        -154 -280 rmoveto
        58 47 -31 -15 19 hvcurveto
        -242 vlineto
        -80 -56 -38 -68 -68 -57 37 81 vhcurveto
        171 vlineto
        80 57 37 68 vhcurveto
        endchar
      </CharString>
      <CharString index="58">
        26 180 vhcurveto
        -33 callgsubr
        return
      </CharString>
      <CharString index="59">
        rmoveto
        -69 callsubr
        return
      </CharString>
      <CharString index="60">
        -4 -4 -1 -2 -4 62 callgsubr
        -174 rlineto
        -13 -10 -8 -10 -16 vvcurveto
        -16 7 -11 13 -10 vhcurveto
        230 -173 rlineto
        -3 4 4 -1 5 hhcurveto
        10 8 5 9 4 hvcurveto
        1 3 1 3 4 vvcurveto
        7 -4 9 -9 6 vhcurveto
        34 callsubr
        9 7 3 9 6 vvcurveto
        12 -10 11 -14 vhcurveto
        return
      </CharString>
      <CharString index="61">
        -75 callgsubr
        -51 callgsubr
        return
      </CharString>
      <CharString index="62">
        11 -38 callgsubr
        8 -11 vhcurveto
        return
      </CharString>
      <CharString index="63">
        -162 -233 -3 -5 -4 -9 3 -10 rlinecurve
        -13 4 11 -8 17 hhcurveto
        161 -137 hlineto
        -8 5 -4 8 vhcurveto
        14 40 callsubr
        4 8 hvcurveto
        137 return
      </CharString>
      <CharString index="64">
        -39 callgsubr
        8 return
      </CharString>
      <CharString index="65">
        hstem
        75 429 vstem
        95 446 rmoveto
        -12 34 callgsubr
        12 vhcurveto
        390 hlineto
        11 -56 callgsubr
        8 -11 vhcurveto
        -390 -124 rmoveto
        -12 -8 -8 -11 hvcurveto
        -9 vlineto
        -11 8 -9 12 vhcurveto
        390 hlineto
        -45 callgsubr
        return
      </CharString>
      <CharString index="66">
        11 -9 0 callsubr
        return
      </CharString>
      <CharString index="67">
        241 624 rmoveto
        -12 -36 callsubr
        -585 -11 callgsubr
        585 -23 callgsubr
        8 -12 vhcurveto
        -226 76 -57 callsubr
        return
      </CharString>
      <CharString index="68">
        hlineto
        11 9 return
      </CharString>
      <CharString index="69">
        8 9 11 -56 callsubr
        return
      </CharString>
      <CharString index="70">
        81 -13 callsubr
        -29 -10 -11 -29 hvcurveto
        -619 vlineto
        -29 12 -12 28 vhcurveto
        167 hlineto
        174 60 81 166 hvcurveto
        192 vlineto
        161 -36 100 -204 vhcurveto
        -49 vmoveto
        155 36 -72 -137 hvcurveto
        -201 vlineto
        -139 -61 -53 -124 vhcurveto
        -157 602 hlineto
        return
      </CharString>
      <CharString index="71">
        23 callgsubr
        10 -63 callgsubr
        return
      </CharString>
      <CharString index="72">
        hvcurveto
        -174 vlineto
        return
      </CharString>
      <CharString index="73">
        vstem
        71 356 rmoveto
        -13 -5 -8 -15 -16 vvcurveto
        -16 7 -16 13 -5 vhcurveto
        410 -141 17 -6 13 5 6 14 rlinecurve
        6 14 -6 15 -12 4 -397 132 rcurveline
        395 138 11 4 4 11 -1 12 rlinecurve
        -2 22 -21 2 -13 -5 rrcurveto
        return
      </CharString>
      <CharString index="74">
        196 vlineto
        180 131 return
      </CharString>
      <CharString index="75">
        286 701 rmoveto
        -23 -12 -12 -15 -5 hvcurveto
        return
      </CharString>
      <CharString index="76">
        700 -48 callgsubr
        return
      </CharString>
      <CharString index="77">
        504 rmoveto
        -13 5 -21 -2 -2 -22 -1 -12 4 -11 11 -4 395 -138 rcurveline
        -397 -132 -12 -4 -6 -15 6 -14 rlinecurve
        6 -14 13 -5 17 6 410 141 rcurveline
        13 5 7 16 16 vvcurveto
        16 -8 15 -13 5 vhcurveto
        return
      </CharString>
      <CharString index="78">
        -136 275 hstem
        2 105 vstem
        78 -74 callgsubr
        endchar
      </CharString>
      <CharString index="79">
        -9 callsubr
        163 -37 81 return
      </CharString>
      <CharString index="80">
        vlineto
        -41 callgsubr
        return
      </CharString>
      <CharString index="81">
        48 vstem
        312 756 rmoveto
        -176 -116 -104 -174 hvcurveto
        -200 vlineto
        -164 116 -114 176 180 108 114 164 vhcurveto
        200 vlineto
        164 -108 114 -180 vhcurveto
        return
      </CharString>
      <CharString index="82">
        8 callsubr
        63 8 callsubr
        return
      </CharString>
      <CharString index="83">
        -8 11 vhcurveto
        return
      </CharString>
      <CharString index="84">
        vlineto
        11 -8 return
      </CharString>
      <CharString index="85">
        81 21 -21 259 49 393 -20 return
      </CharString>
      <CharString index="86">
        -11 -6 callsubr
        return
      </CharString>
      <CharString index="87">
        76 callgsubr
        8 return
      </CharString>
      <CharString index="88">
        -20 callgsubr
        11 hvcurveto
        return
      </CharString>
      <CharString index="89">
        8 -5 10 hhcurveto
        return
      </CharString>
      <CharString index="90">
        69 callgsubr
        -637 vlineto
        -19 8 -24 33 vhcurveto
        343 -7 callsubr
        9 -15 callsubr
        -334 631 hlineto
        -41 callgsubr
        return
      </CharString>
      <CharString index="91">
        -127 -165 rlineto
        -15 -12 5 -19 18 hhcurveto
        2 hlineto
        14 7 3 10 10 hvcurveto
        147 161 rlineto
        14 12 -4 21 -19 hhcurveto
        -7 hlineto
        2 -1 -44 -3 -4 -6 rrcurveto
        return
      </CharString>
      <CharString index="92">
        -3 callgsubr
        172 -37 82 56 176 19 216 11 -2 9 -18 vhcurveto
        -8 hlineto
        -19 -1 -12 -15 return
      </CharString>
      <CharString index="93">
        4 callsubr
        hvcurveto
        return
      </CharString>
      <CharString index="94">
        -27 callsubr
        -80 vhcurveto
        return
      </CharString>
      <CharString index="95">
        -61 228 hlineto
        18 -15 11 -19 vhcurveto
        -153 -257 rmoveto
        148 216 rlineto
        return
      </CharString>
      <CharString index="96">
        -78 callgsubr
        10 3 callsubr
        return
      </CharString>
      <CharString index="97">
        -11 -36 callsubr
        return
      </CharString>
      <CharString index="98">
        -9 60 callgsubr
        return
      </CharString>
      <CharString index="99">
        355 -609 rlineto
        -13 8 16 -9 17 hhcurveto
        17 21 9 30 hvcurveto
        643 -54 callsubr
        -611 vlineto
        return
      </CharString>
      <CharString index="100">
        -36 callsubr
        -9 vlineto
        return
      </CharString>
      <CharString index="101">
        1 callgsubr
        8 return
      </CharString>
      <CharString index="102">
        -106 74 -59 100 return
      </CharString>
      <CharString index="103">
        -26 callsubr
        endchar
      </CharString>
      <CharString index="104">
        284 706 rmoveto
        -77 -167 17 callgsubr
        return
      </CharString>
      <CharString index="105">
        12 2 callsubr
        -12 vhcurveto
        return
      </CharString>
      <CharString index="106">
        hlineto
        36 callsubr
        return
      </CharString>
      <CharString index="107">
        21 -21 700 -20 return
      </CharString>
      <CharString index="108">
        hlineto
        12 8 return
      </CharString>
      <CharString index="109">
        -12 28 callgsubr
        -11 8 return
      </CharString>
      <CharString index="110">
        -7 0 49 290 35 callgsubr
        return
      </CharString>
      <CharString index="111">
        rmoveto
        -11 callsubr
        return
      </CharString>
      <CharString index="112">
        -13 callsubr
        -7 -7 -3 -3 -2 hvcurveto
        -161 return
      </CharString>
      <CharString index="113">
        9 11 hvcurveto
        return
      </CharString>
      <CharString index="114">
        vhcurveto
        10 vlineto
        return
      </CharString>
      <CharString index="115">
        2 15 vhcurveto
        return
      </CharString>
      <CharString index="116">
        -92 callgsubr
        endchar
      </CharString>
      <CharString index="117">
        15 46 callsubr
        6 6 8 5 3 hvcurveto
        return
      </CharString>
      <CharString index="118">
        99 -1 49 603 49 return
      </CharString>
      <CharString index="119">
        rmoveto
        -10 callgsubr
        return
      </CharString>
      <CharString index="120">
        9 -24 callgsubr
        return
      </CharString>
      <CharString index="121">
        rmoveto
        -90 callsubr
        return
      </CharString>
      <CharString index="122">
        vlineto
        19 callgsubr
        return
      </CharString>
      <CharString index="123">
        vlineto
        -11 8 return
      </CharString>
      <CharString index="124">
        -31 42 callsubr
        return
      </CharString>
      <CharString index="125">
        vlineto
        80 58 38 69 return
      </CharString>
      <CharString index="126">
        11 8 8 11 hvcurveto
        13 59 callgsubr
        return
      </CharString>
      <CharString index="127">
        -35 callsubr
        -660 vlineto
        -11 return
      </CharString>
      <CharString index="128">
        vlineto
        32 callsubr
        return
      </CharString>
      <CharString index="129">
        -43 callgsubr
        11 hvcurveto
        return
      </CharString>
      <CharString index="130">
        -9 11 vhcurveto
        return
      </CharString>
      <CharString index="131">
        rmoveto
        -19 -1 54 callsubr
        17 -70 callsubr
        return
      </CharString>
      <CharString index="132">
        47 250 47 vstem
        return
      </CharString>
      <CharString index="133">
        -86 callsubr
        97 return
      </CharString>
      <CharString index="134">
        1 -230 47 183 47 455 -20 return
      </CharString>
      <CharString index="135">
        -8 -8 -12 hvcurveto
        -9 vlineto
        return
      </CharString>
      <CharString index="136">
        vhcurveto
        53 callgsubr
        return
      </CharString>
      <CharString index="137" raw="1">
        157f830b   
      </CharString>
      <CharString index="138">
        -12 13 callgsubr
        return
      </CharString>
      <CharString index="139">
        4 45 callgsubr
        return
      </CharString>
      <CharString index="140">
        21 -21 501 -20 return
      </CharString>
      <CharString index="141">
        -7 callgsubr
        -12 8 -8 return
      </CharString>
      <CharString index="142">
        49 263 49 return
      </CharString>
      <CharString index="143">
        249 48 vstem
        return
      </CharString>
      <CharString index="144">
        -8 -9 -11 return
      </CharString>
      <CharString index="145">
        -12 -8 -8 return
      </CharString>
      <CharString index="146">
        386 -52 callgsubr
        -10 hvcurveto
        -10 -38 callsubr
        return
      </CharString>
      <CharString index="147">
        hlineto
        12 0 8 11 hvcurveto
        9 vlineto
        11 0 9 -12 vhcurveto
        endchar
      </CharString>
      <CharString index="148">
        hhcurveto
        98 74 59 106 hvcurveto
        53 callgsubr
        109 -74 56 -98 return
      </CharString>
      <CharString index="149">
        11 9 8 11 hvcurveto
        10 11 callsubr
        endchar
      </CharString>
      <CharString index="150">
        -1 vlineto
        14 8 -9 16 -16 hhcurveto
        return
      </CharString>
      <CharString index="151">
        181 -18 -149 33 -74 hhcurveto
        return
      </CharString>
      <CharString index="152">
        -23 callgsubr
        9 return
      </CharString>
      <CharString index="153">
        32 40 32 return
      </CharString>
      <CharString index="154">
        500 rmoveto
        return
      </CharString>
      <CharString index="155">
        21 callgsubr
        9 -19 callgsubr
        return
      </CharString>
      <CharString index="156">
        -73 callgsubr
        endchar
      </CharString>
      <CharString index="157">
        2 vhcurveto
        -11 return
      </CharString>
      <CharString index="158">
        -11 -1 -35 callsubr
        -9 vlineto
        -11 1 -24 callgsubr
        return
      </CharString>
      <CharString index="159">
        rmoveto
        -19 -6 -7 -10 -7 hvcurveto
        return
      </CharString>
      <CharString index="160">
        174 vlineto
        return
      </CharString>
      <CharString index="161">
        13 -14 hhcurveto
        -11 hlineto
        -6 31 callsubr
        return
      </CharString>
      <CharString index="162">
        -168 -2 48 263 65 265 48 hstem
        return
      </CharString>
      <CharString index="163">
        -6 callgsubr
        11 return
      </CharString>
      <CharString index="164">
        44 41 43 return
      </CharString>
      <CharString index="165">
        -8 -12 hvcurveto
        -8 -38 callsubr
        return
      </CharString>
      <CharString index="166">
        vlineto
        10 -67 callsubr
        return
      </CharString>
      <CharString index="167">
        vlineto
        16 callsubr
        return
      </CharString>
      <CharString index="168">
        9 76 callgsubr
        return
      </CharString>
      <CharString index="169">
        hvcurveto
        -229 return
      </CharString>
      <CharString index="170">
        44 185 47 hstemhm
        26 64 20 47 return
      </CharString>
      <CharString index="171">
        434 40 76 38 hstem
        151 40 return
      </CharString>
      <CharString index="172">
        -33 callgsubr
        26 64 return
      </CharString>
      <CharString index="173">
        rlineto
        -7 3 return
      </CharString>
      <CharString index="174">
        -15 hhcurveto
        endchar
      </CharString>
      <CharString index="175">
        9 hlineto
        8 7 6 6 3 hvcurveto
        return
      </CharString>
      <CharString index="176">
        700 4 callgsubr
        return
      </CharString>
      <CharString index="177">
        -27 callgsubr
        endchar
      </CharString>
      <CharString index="178">
        21 -21 149 38 return
      </CharString>
      <CharString index="179">
        38 361 36 hstem
        return
      </CharString>
      <CharString index="180">
        43 257 46 return
      </CharString>
      <CharString index="181">
        -52 37 76 -3 return
      </CharString>
      <CharString index="182">
        23 callsubr
        vstem
        return
      </CharString>
      <CharString index="183">
        hlineto
        11 8 return
      </CharString>
      <CharString index="184">
        hvcurveto
        8 vlineto
        return
      </CharString>
</ttFont>
